<mxfile host="app.diagrams.net" agent="Mozilla/5.0 (Windows NT 10.0; Win64; x64) AppleWebKit/537.36 (KHTML, like Gecko) Chrome/137.0.0.0 Safari/537.36" version="27.1.4">
  <diagram name="‫עמוד-1‬" id="1T7co-rQT7FKzHFKGL2q">
    <mxGraphModel dx="824" dy="2172" grid="0" gridSize="10" guides="1" tooltips="1" connect="1" arrows="1" fold="1" page="0" pageScale="1" pageWidth="827" pageHeight="1169" math="0" shadow="0">
      <root>
        <mxCell id="0" />
        <mxCell id="1" parent="0" />
        <mxCell id="JIpgwvhf-enW7Zx7ybm6-2" style="edgeStyle=orthogonalEdgeStyle;rounded=0;orthogonalLoop=1;jettySize=auto;html=1;exitX=1;exitY=0.5;exitDx=0;exitDy=0;curved=1;entryX=1;entryY=0.5;entryDx=0;entryDy=0;" edge="1" parent="1" source="JIpgwvhf-enW7Zx7ybm6-14" target="JIpgwvhf-enW7Zx7ybm6-14">
          <mxGeometry relative="1" as="geometry">
            <mxPoint x="1411.6666870117188" y="456" as="targetPoint" />
            <Array as="points">
              <mxPoint x="1376.6666870117188" y="490" />
              <mxPoint x="1441.6666870117188" y="490" />
              <mxPoint x="1441.6666870117188" y="426" />
              <mxPoint x="1376.6666870117188" y="426" />
            </Array>
          </mxGeometry>
        </mxCell>
        <mxCell id="JIpgwvhf-enW7Zx7ybm6-3" value="space&lt;div&gt;new line&lt;/div&gt;" style="edgeLabel;html=1;align=center;verticalAlign=middle;resizable=0;points=[];" vertex="1" connectable="0" parent="JIpgwvhf-enW7Zx7ybm6-2">
          <mxGeometry x="-0.0155" relative="1" as="geometry">
            <mxPoint as="offset" />
          </mxGeometry>
        </mxCell>
        <mxCell id="JIpgwvhf-enW7Zx7ybm6-4" style="edgeStyle=orthogonalEdgeStyle;rounded=0;orthogonalLoop=1;jettySize=auto;html=1;exitX=1;exitY=1;exitDx=0;exitDy=0;entryX=0.5;entryY=0;entryDx=0;entryDy=0;curved=1;" edge="1" parent="1" source="JIpgwvhf-enW7Zx7ybm6-14" target="JIpgwvhf-enW7Zx7ybm6-21">
          <mxGeometry relative="1" as="geometry" />
        </mxCell>
        <mxCell id="JIpgwvhf-enW7Zx7ybm6-5" value="i" style="edgeLabel;html=1;align=center;verticalAlign=middle;resizable=0;points=[];" vertex="1" connectable="0" parent="JIpgwvhf-enW7Zx7ybm6-4">
          <mxGeometry x="0.4828" y="-6" relative="1" as="geometry">
            <mxPoint as="offset" />
          </mxGeometry>
        </mxCell>
        <mxCell id="JIpgwvhf-enW7Zx7ybm6-6" style="edgeStyle=orthogonalEdgeStyle;rounded=0;orthogonalLoop=1;jettySize=auto;html=1;exitX=0.5;exitY=1;exitDx=0;exitDy=0;entryX=0.5;entryY=0;entryDx=0;entryDy=0;curved=1;" edge="1" parent="1" source="JIpgwvhf-enW7Zx7ybm6-14" target="JIpgwvhf-enW7Zx7ybm6-40">
          <mxGeometry relative="1" as="geometry" />
        </mxCell>
        <mxCell id="JIpgwvhf-enW7Zx7ybm6-7" value="c" style="edgeLabel;html=1;align=center;verticalAlign=middle;resizable=0;points=[];" vertex="1" connectable="0" parent="JIpgwvhf-enW7Zx7ybm6-6">
          <mxGeometry x="-0.0979" y="-3" relative="1" as="geometry">
            <mxPoint as="offset" />
          </mxGeometry>
        </mxCell>
        <mxCell id="JIpgwvhf-enW7Zx7ybm6-8" style="edgeStyle=orthogonalEdgeStyle;rounded=0;orthogonalLoop=1;jettySize=auto;html=1;exitX=0.5;exitY=1;exitDx=0;exitDy=0;entryX=1;entryY=0;entryDx=0;entryDy=0;curved=1;" edge="1" parent="1" source="JIpgwvhf-enW7Zx7ybm6-14" target="JIpgwvhf-enW7Zx7ybm6-61">
          <mxGeometry relative="1" as="geometry" />
        </mxCell>
        <mxCell id="JIpgwvhf-enW7Zx7ybm6-9" value="v" style="edgeLabel;html=1;align=center;verticalAlign=middle;resizable=0;points=[];" vertex="1" connectable="0" parent="JIpgwvhf-enW7Zx7ybm6-8">
          <mxGeometry x="0.0201" y="4" relative="1" as="geometry">
            <mxPoint as="offset" />
          </mxGeometry>
        </mxCell>
        <mxCell id="JIpgwvhf-enW7Zx7ybm6-10" style="edgeStyle=orthogonalEdgeStyle;rounded=0;orthogonalLoop=1;jettySize=auto;html=1;exitX=0;exitY=1;exitDx=0;exitDy=0;entryX=1;entryY=0.5;entryDx=0;entryDy=0;curved=1;" edge="1" parent="1" source="JIpgwvhf-enW7Zx7ybm6-14" target="JIpgwvhf-enW7Zx7ybm6-82">
          <mxGeometry relative="1" as="geometry" />
        </mxCell>
        <mxCell id="JIpgwvhf-enW7Zx7ybm6-11" value="f" style="edgeLabel;html=1;align=center;verticalAlign=middle;resizable=0;points=[];" vertex="1" connectable="0" parent="JIpgwvhf-enW7Zx7ybm6-10">
          <mxGeometry x="-0.2919" y="5" relative="1" as="geometry">
            <mxPoint as="offset" />
          </mxGeometry>
        </mxCell>
        <mxCell id="JIpgwvhf-enW7Zx7ybm6-12" style="edgeStyle=orthogonalEdgeStyle;rounded=0;orthogonalLoop=1;jettySize=auto;html=1;exitX=0;exitY=0.5;exitDx=0;exitDy=0;entryX=1;entryY=1;entryDx=0;entryDy=0;curved=1;" edge="1" parent="1" source="JIpgwvhf-enW7Zx7ybm6-14" target="JIpgwvhf-enW7Zx7ybm6-98">
          <mxGeometry relative="1" as="geometry" />
        </mxCell>
        <mxCell id="JIpgwvhf-enW7Zx7ybm6-13" value="e" style="edgeLabel;html=1;align=center;verticalAlign=middle;resizable=0;points=[];" vertex="1" connectable="0" parent="JIpgwvhf-enW7Zx7ybm6-12">
          <mxGeometry x="0.1398" y="3" relative="1" as="geometry">
            <mxPoint as="offset" />
          </mxGeometry>
        </mxCell>
        <mxCell id="JIpgwvhf-enW7Zx7ybm6-117" style="edgeStyle=orthogonalEdgeStyle;rounded=0;orthogonalLoop=1;jettySize=auto;html=1;exitX=0;exitY=0;exitDx=0;exitDy=0;entryX=0.5;entryY=1;entryDx=0;entryDy=0;fontSize=12;startSize=8;endSize=8;curved=1;" edge="1" parent="1" source="JIpgwvhf-enW7Zx7ybm6-14" target="JIpgwvhf-enW7Zx7ybm6-115">
          <mxGeometry relative="1" as="geometry" />
        </mxCell>
        <mxCell id="JIpgwvhf-enW7Zx7ybm6-118" value="w" style="edgeLabel;html=1;align=center;verticalAlign=middle;resizable=0;points=[];fontSize=12;" vertex="1" connectable="0" parent="JIpgwvhf-enW7Zx7ybm6-117">
          <mxGeometry x="-0.1389" y="5" relative="1" as="geometry">
            <mxPoint as="offset" />
          </mxGeometry>
        </mxCell>
        <mxCell id="JIpgwvhf-enW7Zx7ybm6-148" style="edgeStyle=orthogonalEdgeStyle;curved=1;rounded=0;orthogonalLoop=1;jettySize=auto;html=1;exitX=1;exitY=0;exitDx=0;exitDy=0;entryX=0;entryY=0.5;entryDx=0;entryDy=0;fontSize=12;startSize=8;endSize=8;" edge="1" parent="1" source="JIpgwvhf-enW7Zx7ybm6-14" target="JIpgwvhf-enW7Zx7ybm6-147">
          <mxGeometry relative="1" as="geometry">
            <Array as="points">
              <mxPoint x="1365" y="399" />
            </Array>
          </mxGeometry>
        </mxCell>
        <mxCell id="JIpgwvhf-enW7Zx7ybm6-149" value="r" style="edgeLabel;html=1;align=center;verticalAlign=middle;resizable=0;points=[];fontSize=12;" vertex="1" connectable="0" parent="JIpgwvhf-enW7Zx7ybm6-148">
          <mxGeometry x="0.143" y="-5" relative="1" as="geometry">
            <mxPoint as="offset" />
          </mxGeometry>
        </mxCell>
        <mxCell id="JIpgwvhf-enW7Zx7ybm6-183" style="edgeStyle=orthogonalEdgeStyle;curved=1;rounded=0;orthogonalLoop=1;jettySize=auto;html=1;exitX=0.5;exitY=0;exitDx=0;exitDy=0;entryX=0.5;entryY=1;entryDx=0;entryDy=0;fontSize=12;startSize=8;endSize=8;" edge="1" parent="1" source="JIpgwvhf-enW7Zx7ybm6-14" target="JIpgwvhf-enW7Zx7ybm6-182">
          <mxGeometry relative="1" as="geometry" />
        </mxCell>
        <mxCell id="JIpgwvhf-enW7Zx7ybm6-184" value="&lt;span style=&quot;font-size: 11px;&quot;&gt;[a-z&lt;/span&gt;&lt;span style=&quot;color: light-dark(rgb(0, 0, 0), rgb(255, 255, 255)); font-size: 11px;&quot;&gt;]&lt;/span&gt;&lt;div style=&quot;font-size: 11px;&quot;&gt;&lt;span style=&quot;color: light-dark(rgb(0, 0, 0), rgb(255, 255, 255));&quot;&gt;[A-Z&lt;/span&gt;&lt;span style=&quot;color: light-dark(rgb(0, 0, 0), rgb(255, 255, 255));&quot;&gt;]&lt;/span&gt;&lt;/div&gt;" style="edgeLabel;html=1;align=center;verticalAlign=middle;resizable=0;points=[];fontSize=12;" vertex="1" connectable="0" parent="JIpgwvhf-enW7Zx7ybm6-183">
          <mxGeometry x="0.008" relative="1" as="geometry">
            <mxPoint x="-1" as="offset" />
          </mxGeometry>
        </mxCell>
        <mxCell id="JIpgwvhf-enW7Zx7ybm6-14" value="q0" style="ellipse;whiteSpace=wrap;html=1;aspect=fixed;" vertex="1" parent="1">
          <mxGeometry x="1296.6666870117188" y="422" width="80" height="80" as="geometry" />
        </mxCell>
        <mxCell id="JIpgwvhf-enW7Zx7ybm6-15" style="edgeStyle=orthogonalEdgeStyle;rounded=0;orthogonalLoop=1;jettySize=auto;html=1;exitX=1;exitY=0.5;exitDx=0;exitDy=0;entryX=0;entryY=0.5;entryDx=0;entryDy=0;curved=1;" edge="1" parent="1" source="JIpgwvhf-enW7Zx7ybm6-21" target="JIpgwvhf-enW7Zx7ybm6-26">
          <mxGeometry relative="1" as="geometry" />
        </mxCell>
        <mxCell id="JIpgwvhf-enW7Zx7ybm6-16" value="n" style="edgeLabel;html=1;align=center;verticalAlign=middle;resizable=0;points=[];" vertex="1" connectable="0" parent="JIpgwvhf-enW7Zx7ybm6-15">
          <mxGeometry x="-0.0267" relative="1" as="geometry">
            <mxPoint as="offset" />
          </mxGeometry>
        </mxCell>
        <mxCell id="JIpgwvhf-enW7Zx7ybm6-17" style="edgeStyle=orthogonalEdgeStyle;rounded=0;orthogonalLoop=1;jettySize=auto;html=1;exitX=0.5;exitY=1;exitDx=0;exitDy=0;entryX=0.5;entryY=0;entryDx=0;entryDy=0;curved=1;" edge="1" parent="1" source="JIpgwvhf-enW7Zx7ybm6-21" target="JIpgwvhf-enW7Zx7ybm6-35">
          <mxGeometry relative="1" as="geometry" />
        </mxCell>
        <mxCell id="JIpgwvhf-enW7Zx7ybm6-18" value="f" style="edgeLabel;html=1;align=center;verticalAlign=middle;resizable=0;points=[];" vertex="1" connectable="0" parent="JIpgwvhf-enW7Zx7ybm6-17">
          <mxGeometry x="0.0141" y="3" relative="1" as="geometry">
            <mxPoint as="offset" />
          </mxGeometry>
        </mxCell>
        <mxCell id="JIpgwvhf-enW7Zx7ybm6-19" style="edgeStyle=orthogonalEdgeStyle;rounded=0;orthogonalLoop=1;jettySize=auto;html=1;exitX=1;exitY=0;exitDx=0;exitDy=0;entryX=0;entryY=0;entryDx=0;entryDy=0;curved=1;" edge="1" parent="1" source="JIpgwvhf-enW7Zx7ybm6-21" target="JIpgwvhf-enW7Zx7ybm6-32">
          <mxGeometry relative="1" as="geometry">
            <Array as="points">
              <mxPoint x="1451.6666870117188" y="516" />
              <mxPoint x="1785.6666870117188" y="516" />
            </Array>
          </mxGeometry>
        </mxCell>
        <mxCell id="JIpgwvhf-enW7Zx7ybm6-20" value="[a-z&lt;span style=&quot;color: light-dark(rgb(0, 0, 0), rgb(255, 255, 255));&quot;&gt;]&lt;/span&gt;&lt;div&gt;&lt;span style=&quot;color: light-dark(rgb(0, 0, 0), rgb(255, 255, 255));&quot;&gt;[A-Z&lt;/span&gt;&lt;span style=&quot;color: light-dark(rgb(0, 0, 0), rgb(255, 255, 255));&quot;&gt;]&lt;/span&gt;&lt;/div&gt;&lt;div&gt;&lt;span style=&quot;color: light-dark(rgb(0, 0, 0), rgb(255, 255, 255));&quot;&gt;[0-9]&lt;/span&gt;&lt;/div&gt;&lt;div&gt;{f,n}&lt;/div&gt;" style="edgeLabel;html=1;align=center;verticalAlign=middle;resizable=0;points=[];" vertex="1" connectable="0" parent="JIpgwvhf-enW7Zx7ybm6-19">
          <mxGeometry x="0.0134" y="1" relative="1" as="geometry">
            <mxPoint as="offset" />
          </mxGeometry>
        </mxCell>
        <mxCell id="JIpgwvhf-enW7Zx7ybm6-21" value="q40&lt;div&gt;identifier&lt;/div&gt;" style="ellipse;whiteSpace=wrap;html=1;aspect=fixed;strokeColor=#00FF00;" vertex="1" parent="1">
          <mxGeometry x="1383.6666870117188" y="536" width="80" height="80" as="geometry" />
        </mxCell>
        <mxCell id="JIpgwvhf-enW7Zx7ybm6-22" style="edgeStyle=orthogonalEdgeStyle;rounded=0;orthogonalLoop=1;jettySize=auto;html=1;exitX=1;exitY=0.5;exitDx=0;exitDy=0;entryX=0;entryY=0.5;entryDx=0;entryDy=0;curved=1;" edge="1" parent="1" source="JIpgwvhf-enW7Zx7ybm6-26" target="JIpgwvhf-enW7Zx7ybm6-29">
          <mxGeometry relative="1" as="geometry" />
        </mxCell>
        <mxCell id="JIpgwvhf-enW7Zx7ybm6-23" value="t" style="edgeLabel;html=1;align=center;verticalAlign=middle;resizable=0;points=[];" vertex="1" connectable="0" parent="JIpgwvhf-enW7Zx7ybm6-22">
          <mxGeometry x="-0.0267" relative="1" as="geometry">
            <mxPoint as="offset" />
          </mxGeometry>
        </mxCell>
        <mxCell id="JIpgwvhf-enW7Zx7ybm6-24" style="edgeStyle=orthogonalEdgeStyle;rounded=0;orthogonalLoop=1;jettySize=auto;html=1;exitX=1;exitY=1;exitDx=0;exitDy=0;entryX=0;entryY=1;entryDx=0;entryDy=0;curved=1;" edge="1" parent="1" source="JIpgwvhf-enW7Zx7ybm6-26" target="JIpgwvhf-enW7Zx7ybm6-32">
          <mxGeometry relative="1" as="geometry">
            <Array as="points">
              <mxPoint x="1581.6666870117188" y="646" />
              <mxPoint x="1785.6666870117188" y="646" />
            </Array>
          </mxGeometry>
        </mxCell>
        <mxCell id="JIpgwvhf-enW7Zx7ybm6-25" value="[a-z&lt;span style=&quot;color: light-dark(rgb(0, 0, 0), rgb(255, 255, 255));&quot;&gt;]&lt;/span&gt;&lt;div&gt;&lt;span style=&quot;color: light-dark(rgb(0, 0, 0), rgb(255, 255, 255));&quot;&gt;[A-Z&lt;/span&gt;&lt;span style=&quot;color: light-dark(rgb(0, 0, 0), rgb(255, 255, 255));&quot;&gt;]&lt;/span&gt;&lt;/div&gt;&lt;div&gt;&lt;span style=&quot;color: light-dark(rgb(0, 0, 0), rgb(255, 255, 255));&quot;&gt;[0-9]&lt;/span&gt;&lt;/div&gt;&lt;div&gt;{t}&lt;/div&gt;" style="edgeLabel;html=1;align=center;verticalAlign=middle;resizable=0;points=[];" vertex="1" connectable="0" parent="JIpgwvhf-enW7Zx7ybm6-24">
          <mxGeometry x="0.0133" y="1" relative="1" as="geometry">
            <mxPoint as="offset" />
          </mxGeometry>
        </mxCell>
        <mxCell id="JIpgwvhf-enW7Zx7ybm6-26" value="q41&lt;div&gt;identifier&lt;/div&gt;" style="ellipse;whiteSpace=wrap;html=1;aspect=fixed;strokeColor=#00FF00;" vertex="1" parent="1">
          <mxGeometry x="1513.6666870117188" y="536" width="80" height="80" as="geometry" />
        </mxCell>
        <mxCell id="JIpgwvhf-enW7Zx7ybm6-27" style="edgeStyle=orthogonalEdgeStyle;rounded=0;orthogonalLoop=1;jettySize=auto;html=1;exitX=1;exitY=0.5;exitDx=0;exitDy=0;entryX=0;entryY=0.5;entryDx=0;entryDy=0;curved=1;" edge="1" parent="1" source="JIpgwvhf-enW7Zx7ybm6-29" target="JIpgwvhf-enW7Zx7ybm6-32">
          <mxGeometry relative="1" as="geometry" />
        </mxCell>
        <mxCell id="JIpgwvhf-enW7Zx7ybm6-28" value="[a-z&lt;span style=&quot;background-color: light-dark(#ffffff, var(--ge-dark-color, #121212)); color: light-dark(rgb(0, 0, 0), rgb(255, 255, 255));&quot;&gt;]&lt;/span&gt;&lt;div&gt;&lt;span style=&quot;background-color: light-dark(#ffffff, var(--ge-dark-color, #121212)); color: light-dark(rgb(0, 0, 0), rgb(255, 255, 255));&quot;&gt;[A-Z&lt;/span&gt;&lt;span style=&quot;background-color: light-dark(#ffffff, var(--ge-dark-color, #121212)); color: light-dark(rgb(0, 0, 0), rgb(255, 255, 255));&quot;&gt;]&lt;/span&gt;&lt;/div&gt;&lt;div&gt;&lt;span style=&quot;background-color: light-dark(#ffffff, var(--ge-dark-color, #121212)); color: light-dark(rgb(0, 0, 0), rgb(255, 255, 255));&quot;&gt;[0-9]&lt;/span&gt;&lt;/div&gt;" style="edgeLabel;html=1;align=center;verticalAlign=middle;resizable=0;points=[];" vertex="1" connectable="0" parent="JIpgwvhf-enW7Zx7ybm6-27">
          <mxGeometry x="0.08" y="1" relative="1" as="geometry">
            <mxPoint x="-7" y="1" as="offset" />
          </mxGeometry>
        </mxCell>
        <mxCell id="JIpgwvhf-enW7Zx7ybm6-29" value="q42&lt;div&gt;INT&lt;/div&gt;" style="ellipse;whiteSpace=wrap;html=1;aspect=fixed;strokeColor=#00FF00;" vertex="1" parent="1">
          <mxGeometry x="1643.6666870117188" y="536" width="80" height="80" as="geometry" />
        </mxCell>
        <mxCell id="JIpgwvhf-enW7Zx7ybm6-30" style="edgeStyle=orthogonalEdgeStyle;rounded=0;orthogonalLoop=1;jettySize=auto;html=1;exitX=1;exitY=0.5;exitDx=0;exitDy=0;curved=1;" edge="1" parent="1" source="JIpgwvhf-enW7Zx7ybm6-32">
          <mxGeometry relative="1" as="geometry">
            <mxPoint x="1853.6666870117188" y="576" as="targetPoint" />
            <Array as="points">
              <mxPoint x="1853.6666870117188" y="539" />
              <mxPoint x="1900.6666870117188" y="539" />
              <mxPoint x="1900.6666870117188" y="576" />
            </Array>
          </mxGeometry>
        </mxCell>
        <mxCell id="JIpgwvhf-enW7Zx7ybm6-31" value="[a-z&lt;span style=&quot;color: light-dark(rgb(0, 0, 0), rgb(255, 255, 255));&quot;&gt;]&lt;/span&gt;&lt;div&gt;&lt;span style=&quot;color: light-dark(rgb(0, 0, 0), rgb(255, 255, 255));&quot;&gt;[A-Z&lt;/span&gt;&lt;span style=&quot;color: light-dark(rgb(0, 0, 0), rgb(255, 255, 255));&quot;&gt;]&lt;/span&gt;&lt;/div&gt;&lt;div&gt;&lt;span style=&quot;color: light-dark(rgb(0, 0, 0), rgb(255, 255, 255));&quot;&gt;[0-9]&lt;/span&gt;&lt;/div&gt;" style="edgeLabel;html=1;align=center;verticalAlign=middle;resizable=0;points=[];" vertex="1" connectable="0" parent="JIpgwvhf-enW7Zx7ybm6-30">
          <mxGeometry x="0.1865" relative="1" as="geometry">
            <mxPoint as="offset" />
          </mxGeometry>
        </mxCell>
        <mxCell id="JIpgwvhf-enW7Zx7ybm6-32" value="q43&lt;div&gt;identifier&lt;/div&gt;" style="ellipse;whiteSpace=wrap;html=1;aspect=fixed;strokeColor=#00FF00;" vertex="1" parent="1">
          <mxGeometry x="1773.6666870117188" y="536" width="80" height="80" as="geometry" />
        </mxCell>
        <mxCell id="JIpgwvhf-enW7Zx7ybm6-33" style="edgeStyle=orthogonalEdgeStyle;rounded=0;orthogonalLoop=1;jettySize=auto;html=1;exitX=1;exitY=0.5;exitDx=0;exitDy=0;entryX=0.5;entryY=1;entryDx=0;entryDy=0;curved=1;" edge="1" parent="1" source="JIpgwvhf-enW7Zx7ybm6-35" target="JIpgwvhf-enW7Zx7ybm6-32">
          <mxGeometry relative="1" as="geometry" />
        </mxCell>
        <mxCell id="JIpgwvhf-enW7Zx7ybm6-34" value="[a-z&lt;span style=&quot;color: light-dark(rgb(0, 0, 0), rgb(255, 255, 255));&quot;&gt;]&lt;/span&gt;&lt;div&gt;&lt;span style=&quot;color: light-dark(rgb(0, 0, 0), rgb(255, 255, 255));&quot;&gt;[A-Z&lt;/span&gt;&lt;span style=&quot;color: light-dark(rgb(0, 0, 0), rgb(255, 255, 255));&quot;&gt;]&lt;/span&gt;&lt;/div&gt;&lt;div&gt;&lt;span style=&quot;color: light-dark(rgb(0, 0, 0), rgb(255, 255, 255));&quot;&gt;[0-9]&lt;/span&gt;&lt;/div&gt;" style="edgeLabel;html=1;align=center;verticalAlign=middle;resizable=0;points=[];" vertex="1" connectable="0" parent="JIpgwvhf-enW7Zx7ybm6-33">
          <mxGeometry x="-0.3813" y="5" relative="1" as="geometry">
            <mxPoint as="offset" />
          </mxGeometry>
        </mxCell>
        <mxCell id="JIpgwvhf-enW7Zx7ybm6-35" value="q44&lt;div&gt;IF&lt;/div&gt;" style="ellipse;whiteSpace=wrap;html=1;aspect=fixed;strokeColor=#00FF00;" vertex="1" parent="1">
          <mxGeometry x="1419.6666870117188" y="651" width="80" height="80" as="geometry" />
        </mxCell>
        <mxCell id="JIpgwvhf-enW7Zx7ybm6-36" style="edgeStyle=orthogonalEdgeStyle;rounded=0;orthogonalLoop=1;jettySize=auto;html=1;exitX=0.5;exitY=1;exitDx=0;exitDy=0;entryX=0.5;entryY=0;entryDx=0;entryDy=0;curved=1;" edge="1" parent="1" source="JIpgwvhf-enW7Zx7ybm6-40" target="JIpgwvhf-enW7Zx7ybm6-45">
          <mxGeometry relative="1" as="geometry" />
        </mxCell>
        <mxCell id="JIpgwvhf-enW7Zx7ybm6-37" value="h" style="edgeLabel;html=1;align=center;verticalAlign=middle;resizable=0;points=[];" vertex="1" connectable="0" parent="JIpgwvhf-enW7Zx7ybm6-36">
          <mxGeometry x="0.001" y="5" relative="1" as="geometry">
            <mxPoint x="-1" as="offset" />
          </mxGeometry>
        </mxCell>
        <mxCell id="JIpgwvhf-enW7Zx7ybm6-38" style="edgeStyle=orthogonalEdgeStyle;rounded=0;orthogonalLoop=1;jettySize=auto;html=1;exitX=0;exitY=1;exitDx=0;exitDy=0;entryX=0;entryY=0;entryDx=0;entryDy=0;curved=1;" edge="1" parent="1" source="JIpgwvhf-enW7Zx7ybm6-40" target="JIpgwvhf-enW7Zx7ybm6-56">
          <mxGeometry relative="1" as="geometry">
            <Array as="points">
              <mxPoint x="1290.6666870117188" y="882" />
            </Array>
          </mxGeometry>
        </mxCell>
        <mxCell id="JIpgwvhf-enW7Zx7ybm6-39" value="[a-z&lt;span style=&quot;color: light-dark(rgb(0, 0, 0), rgb(255, 255, 255));&quot;&gt;]&lt;/span&gt;&lt;div&gt;&lt;span style=&quot;color: light-dark(rgb(0, 0, 0), rgb(255, 255, 255));&quot;&gt;[A-Z&lt;/span&gt;&lt;span style=&quot;color: light-dark(rgb(0, 0, 0), rgb(255, 255, 255));&quot;&gt;]&lt;/span&gt;&lt;/div&gt;&lt;div&gt;&lt;span style=&quot;color: light-dark(rgb(0, 0, 0), rgb(255, 255, 255));&quot;&gt;[0-9]&lt;/span&gt;&lt;/div&gt;&lt;div&gt;{h}&lt;/div&gt;" style="edgeLabel;html=1;align=center;verticalAlign=middle;resizable=0;points=[];" vertex="1" connectable="0" parent="JIpgwvhf-enW7Zx7ybm6-38">
          <mxGeometry x="-0.3113" y="3" relative="1" as="geometry">
            <mxPoint as="offset" />
          </mxGeometry>
        </mxCell>
        <mxCell id="JIpgwvhf-enW7Zx7ybm6-40" value="q45&lt;div&gt;identifier&lt;/div&gt;" style="ellipse;whiteSpace=wrap;html=1;aspect=fixed;strokeColor=#00FF00;" vertex="1" parent="1">
          <mxGeometry x="1278.6666870117188" y="575" width="80" height="80" as="geometry" />
        </mxCell>
        <mxCell id="JIpgwvhf-enW7Zx7ybm6-41" style="rounded=0;orthogonalLoop=1;jettySize=auto;html=1;exitX=1;exitY=1;exitDx=0;exitDy=0;entryX=0;entryY=0.5;entryDx=0;entryDy=0;edgeStyle=orthogonalEdgeStyle;curved=1;" edge="1" parent="1" source="JIpgwvhf-enW7Zx7ybm6-45" target="JIpgwvhf-enW7Zx7ybm6-50">
          <mxGeometry relative="1" as="geometry" />
        </mxCell>
        <mxCell id="JIpgwvhf-enW7Zx7ybm6-42" value="a" style="edgeLabel;html=1;align=center;verticalAlign=middle;resizable=0;points=[];" vertex="1" connectable="0" parent="JIpgwvhf-enW7Zx7ybm6-41">
          <mxGeometry x="0.0671" y="-3" relative="1" as="geometry">
            <mxPoint y="1" as="offset" />
          </mxGeometry>
        </mxCell>
        <mxCell id="JIpgwvhf-enW7Zx7ybm6-43" style="edgeStyle=orthogonalEdgeStyle;rounded=0;orthogonalLoop=1;jettySize=auto;html=1;exitX=0.5;exitY=1;exitDx=0;exitDy=0;entryX=0.5;entryY=0;entryDx=0;entryDy=0;curved=1;" edge="1" parent="1" source="JIpgwvhf-enW7Zx7ybm6-45" target="JIpgwvhf-enW7Zx7ybm6-56">
          <mxGeometry relative="1" as="geometry" />
        </mxCell>
        <mxCell id="JIpgwvhf-enW7Zx7ybm6-44" value="[a-z&lt;span style=&quot;color: light-dark(rgb(0, 0, 0), rgb(255, 255, 255));&quot;&gt;]&lt;/span&gt;&lt;div&gt;&lt;span style=&quot;color: light-dark(rgb(0, 0, 0), rgb(255, 255, 255));&quot;&gt;[A-Z&lt;/span&gt;&lt;span style=&quot;color: light-dark(rgb(0, 0, 0), rgb(255, 255, 255));&quot;&gt;]&lt;/span&gt;&lt;/div&gt;&lt;div&gt;&lt;span style=&quot;color: light-dark(rgb(0, 0, 0), rgb(255, 255, 255));&quot;&gt;[0-9]&lt;/span&gt;&lt;/div&gt;&lt;div&gt;{a}&lt;/div&gt;" style="edgeLabel;html=1;align=center;verticalAlign=middle;resizable=0;points=[];" vertex="1" connectable="0" parent="JIpgwvhf-enW7Zx7ybm6-43">
          <mxGeometry x="-0.1843" relative="1" as="geometry">
            <mxPoint as="offset" />
          </mxGeometry>
        </mxCell>
        <mxCell id="JIpgwvhf-enW7Zx7ybm6-45" value="q46&lt;div&gt;identifier&lt;/div&gt;" style="ellipse;whiteSpace=wrap;html=1;aspect=fixed;strokeColor=#00FF00;" vertex="1" parent="1">
          <mxGeometry x="1339.6666870117188" y="709" width="80" height="80" as="geometry" />
        </mxCell>
        <mxCell id="JIpgwvhf-enW7Zx7ybm6-46" style="edgeStyle=orthogonalEdgeStyle;rounded=0;orthogonalLoop=1;jettySize=auto;html=1;exitX=1;exitY=0.5;exitDx=0;exitDy=0;entryX=0;entryY=0.5;entryDx=0;entryDy=0;curved=1;" edge="1" parent="1" source="JIpgwvhf-enW7Zx7ybm6-50" target="JIpgwvhf-enW7Zx7ybm6-53">
          <mxGeometry relative="1" as="geometry" />
        </mxCell>
        <mxCell id="JIpgwvhf-enW7Zx7ybm6-47" value="r" style="edgeLabel;html=1;align=center;verticalAlign=middle;resizable=0;points=[];" vertex="1" connectable="0" parent="JIpgwvhf-enW7Zx7ybm6-46">
          <mxGeometry x="0.0168" relative="1" as="geometry">
            <mxPoint as="offset" />
          </mxGeometry>
        </mxCell>
        <mxCell id="JIpgwvhf-enW7Zx7ybm6-48" style="edgeStyle=orthogonalEdgeStyle;rounded=0;orthogonalLoop=1;jettySize=auto;html=1;exitX=0;exitY=1;exitDx=0;exitDy=0;entryX=1;entryY=0;entryDx=0;entryDy=0;curved=1;" edge="1" parent="1" source="JIpgwvhf-enW7Zx7ybm6-50" target="JIpgwvhf-enW7Zx7ybm6-56">
          <mxGeometry relative="1" as="geometry" />
        </mxCell>
        <mxCell id="JIpgwvhf-enW7Zx7ybm6-49" value="[a-z&lt;span style=&quot;color: light-dark(rgb(0, 0, 0), rgb(255, 255, 255));&quot;&gt;]&lt;/span&gt;&lt;div&gt;&lt;span style=&quot;color: light-dark(rgb(0, 0, 0), rgb(255, 255, 255));&quot;&gt;[A-Z&lt;/span&gt;&lt;span style=&quot;color: light-dark(rgb(0, 0, 0), rgb(255, 255, 255));&quot;&gt;]&lt;/span&gt;&lt;/div&gt;&lt;div&gt;&lt;span style=&quot;color: light-dark(rgb(0, 0, 0), rgb(255, 255, 255));&quot;&gt;[0-9]&lt;/span&gt;&lt;/div&gt;&lt;div&gt;{r}&lt;/div&gt;" style="edgeLabel;html=1;align=center;verticalAlign=middle;resizable=0;points=[];" vertex="1" connectable="0" parent="JIpgwvhf-enW7Zx7ybm6-48">
          <mxGeometry x="-0.156" y="9" relative="1" as="geometry">
            <mxPoint as="offset" />
          </mxGeometry>
        </mxCell>
        <mxCell id="JIpgwvhf-enW7Zx7ybm6-50" value="q47&lt;div&gt;identifier&lt;/div&gt;" style="ellipse;whiteSpace=wrap;html=1;aspect=fixed;strokeColor=#00FF00;" vertex="1" parent="1">
          <mxGeometry x="1485.6666870117188" y="758" width="80" height="80" as="geometry" />
        </mxCell>
        <mxCell id="JIpgwvhf-enW7Zx7ybm6-51" style="edgeStyle=orthogonalEdgeStyle;rounded=0;orthogonalLoop=1;jettySize=auto;html=1;exitX=0;exitY=1;exitDx=0;exitDy=0;entryX=1;entryY=0.5;entryDx=0;entryDy=0;curved=1;" edge="1" parent="1" source="JIpgwvhf-enW7Zx7ybm6-53" target="JIpgwvhf-enW7Zx7ybm6-56">
          <mxGeometry relative="1" as="geometry">
            <Array as="points">
              <mxPoint x="1643.6666870117188" y="910" />
            </Array>
          </mxGeometry>
        </mxCell>
        <mxCell id="JIpgwvhf-enW7Zx7ybm6-52" value="[a-z&lt;span style=&quot;color: light-dark(rgb(0, 0, 0), rgb(255, 255, 255));&quot;&gt;]&lt;/span&gt;&lt;div&gt;&lt;span style=&quot;color: light-dark(rgb(0, 0, 0), rgb(255, 255, 255));&quot;&gt;[A-Z&lt;/span&gt;&lt;span style=&quot;color: light-dark(rgb(0, 0, 0), rgb(255, 255, 255));&quot;&gt;]&lt;/span&gt;&lt;/div&gt;&lt;div&gt;&lt;span style=&quot;color: light-dark(rgb(0, 0, 0), rgb(255, 255, 255));&quot;&gt;[0-9]&lt;/span&gt;&lt;/div&gt;" style="edgeLabel;html=1;align=center;verticalAlign=middle;resizable=0;points=[];" vertex="1" connectable="0" parent="JIpgwvhf-enW7Zx7ybm6-51">
          <mxGeometry x="0.1062" y="-9" relative="1" as="geometry">
            <mxPoint as="offset" />
          </mxGeometry>
        </mxCell>
        <mxCell id="JIpgwvhf-enW7Zx7ybm6-53" value="q48&lt;div&gt;CHAR&lt;/div&gt;" style="ellipse;whiteSpace=wrap;html=1;aspect=fixed;strokeColor=#00FF00;" vertex="1" parent="1">
          <mxGeometry x="1631.6666870117188" y="758" width="80" height="80" as="geometry" />
        </mxCell>
        <mxCell id="JIpgwvhf-enW7Zx7ybm6-54" style="edgeStyle=orthogonalEdgeStyle;rounded=0;orthogonalLoop=1;jettySize=auto;html=1;exitX=0.5;exitY=1;exitDx=0;exitDy=0;curved=1;entryX=0.5;entryY=1;entryDx=0;entryDy=0;" edge="1" parent="1" source="JIpgwvhf-enW7Zx7ybm6-56" target="JIpgwvhf-enW7Zx7ybm6-56">
          <mxGeometry relative="1" as="geometry">
            <mxPoint x="1397.6666870117188" y="1001" as="targetPoint" />
            <Array as="points">
              <mxPoint x="1346.6666870117188" y="950" />
              <mxPoint x="1346.6666870117188" y="1010" />
              <mxPoint x="1404.6666870117188" y="1010" />
              <mxPoint x="1404.6666870117188" y="950" />
            </Array>
          </mxGeometry>
        </mxCell>
        <mxCell id="JIpgwvhf-enW7Zx7ybm6-55" value="[a-z&lt;span style=&quot;color: light-dark(rgb(0, 0, 0), rgb(255, 255, 255));&quot;&gt;]&lt;/span&gt;&lt;div&gt;&lt;span style=&quot;color: light-dark(rgb(0, 0, 0), rgb(255, 255, 255));&quot;&gt;[A-Z&lt;/span&gt;&lt;span style=&quot;color: light-dark(rgb(0, 0, 0), rgb(255, 255, 255));&quot;&gt;]&lt;/span&gt;&lt;/div&gt;&lt;div&gt;&lt;span style=&quot;color: light-dark(rgb(0, 0, 0), rgb(255, 255, 255));&quot;&gt;[0-9]&lt;/span&gt;&lt;/div&gt;" style="edgeLabel;html=1;align=center;verticalAlign=middle;resizable=0;points=[];" vertex="1" connectable="0" parent="JIpgwvhf-enW7Zx7ybm6-54">
          <mxGeometry x="0.0458" y="2" relative="1" as="geometry">
            <mxPoint as="offset" />
          </mxGeometry>
        </mxCell>
        <mxCell id="JIpgwvhf-enW7Zx7ybm6-56" value="q43&lt;div&gt;identifier&lt;/div&gt;" style="ellipse;whiteSpace=wrap;html=1;aspect=fixed;strokeColor=#00FF00;" vertex="1" parent="1">
          <mxGeometry x="1339.6666870117188" y="870" width="80" height="80" as="geometry" />
        </mxCell>
        <mxCell id="JIpgwvhf-enW7Zx7ybm6-57" style="edgeStyle=orthogonalEdgeStyle;rounded=0;orthogonalLoop=1;jettySize=auto;html=1;exitX=0.5;exitY=1;exitDx=0;exitDy=0;entryX=0.5;entryY=0;entryDx=0;entryDy=0;curved=1;" edge="1" parent="1" source="JIpgwvhf-enW7Zx7ybm6-61" target="JIpgwvhf-enW7Zx7ybm6-66">
          <mxGeometry relative="1" as="geometry" />
        </mxCell>
        <mxCell id="JIpgwvhf-enW7Zx7ybm6-58" value="o" style="edgeLabel;html=1;align=center;verticalAlign=middle;resizable=0;points=[];" vertex="1" connectable="0" parent="JIpgwvhf-enW7Zx7ybm6-57">
          <mxGeometry x="-0.2072" relative="1" as="geometry">
            <mxPoint as="offset" />
          </mxGeometry>
        </mxCell>
        <mxCell id="JIpgwvhf-enW7Zx7ybm6-59" style="edgeStyle=orthogonalEdgeStyle;rounded=0;orthogonalLoop=1;jettySize=auto;html=1;exitX=0;exitY=1;exitDx=0;exitDy=0;entryX=0.5;entryY=0;entryDx=0;entryDy=0;curved=1;" edge="1" parent="1" source="JIpgwvhf-enW7Zx7ybm6-61" target="JIpgwvhf-enW7Zx7ybm6-77">
          <mxGeometry relative="1" as="geometry" />
        </mxCell>
        <mxCell id="JIpgwvhf-enW7Zx7ybm6-60" value="[a-z&lt;span style=&quot;color: light-dark(rgb(0, 0, 0), rgb(255, 255, 255));&quot;&gt;]&lt;/span&gt;&lt;div&gt;&lt;span style=&quot;color: light-dark(rgb(0, 0, 0), rgb(255, 255, 255));&quot;&gt;[A-Z&lt;/span&gt;&lt;span style=&quot;color: light-dark(rgb(0, 0, 0), rgb(255, 255, 255));&quot;&gt;]&lt;/span&gt;&lt;/div&gt;&lt;div&gt;&lt;span style=&quot;color: light-dark(rgb(0, 0, 0), rgb(255, 255, 255));&quot;&gt;[0-9]&lt;/span&gt;&lt;/div&gt;&lt;div&gt;{o}&lt;/div&gt;" style="edgeLabel;html=1;align=center;verticalAlign=middle;resizable=0;points=[];" vertex="1" connectable="0" parent="JIpgwvhf-enW7Zx7ybm6-59">
          <mxGeometry x="0.2874" y="19" relative="1" as="geometry">
            <mxPoint x="-1" y="1" as="offset" />
          </mxGeometry>
        </mxCell>
        <mxCell id="JIpgwvhf-enW7Zx7ybm6-61" value="q49&lt;div&gt;identifier&lt;/div&gt;" style="ellipse;whiteSpace=wrap;html=1;aspect=fixed;strokeColor=#00FF00;" vertex="1" parent="1">
          <mxGeometry x="1189.6666870117188" y="557" width="80" height="80" as="geometry" />
        </mxCell>
        <mxCell id="JIpgwvhf-enW7Zx7ybm6-62" style="edgeStyle=orthogonalEdgeStyle;rounded=0;orthogonalLoop=1;jettySize=auto;html=1;exitX=0.5;exitY=1;exitDx=0;exitDy=0;entryX=0.5;entryY=0;entryDx=0;entryDy=0;curved=1;" edge="1" parent="1" source="JIpgwvhf-enW7Zx7ybm6-66" target="JIpgwvhf-enW7Zx7ybm6-71">
          <mxGeometry relative="1" as="geometry" />
        </mxCell>
        <mxCell id="JIpgwvhf-enW7Zx7ybm6-63" value="i" style="edgeLabel;html=1;align=center;verticalAlign=middle;resizable=0;points=[];" vertex="1" connectable="0" parent="JIpgwvhf-enW7Zx7ybm6-62">
          <mxGeometry x="-0.2407" relative="1" as="geometry">
            <mxPoint as="offset" />
          </mxGeometry>
        </mxCell>
        <mxCell id="JIpgwvhf-enW7Zx7ybm6-64" style="edgeStyle=orthogonalEdgeStyle;rounded=0;orthogonalLoop=1;jettySize=auto;html=1;exitX=0;exitY=0.5;exitDx=0;exitDy=0;entryX=1;entryY=0;entryDx=0;entryDy=0;curved=1;" edge="1" parent="1" source="JIpgwvhf-enW7Zx7ybm6-66" target="JIpgwvhf-enW7Zx7ybm6-77">
          <mxGeometry relative="1" as="geometry" />
        </mxCell>
        <mxCell id="JIpgwvhf-enW7Zx7ybm6-65" value="[a-z&lt;span style=&quot;color: light-dark(rgb(0, 0, 0), rgb(255, 255, 255));&quot;&gt;]&lt;/span&gt;&lt;div&gt;&lt;span style=&quot;color: light-dark(rgb(0, 0, 0), rgb(255, 255, 255));&quot;&gt;[A-Z&lt;/span&gt;&lt;span style=&quot;color: light-dark(rgb(0, 0, 0), rgb(255, 255, 255));&quot;&gt;]&lt;/span&gt;&lt;/div&gt;&lt;div&gt;&lt;span style=&quot;color: light-dark(rgb(0, 0, 0), rgb(255, 255, 255));&quot;&gt;[0-9]&lt;/span&gt;&lt;/div&gt;&lt;div&gt;{i}&lt;/div&gt;" style="edgeLabel;html=1;align=center;verticalAlign=middle;resizable=0;points=[];" vertex="1" connectable="0" parent="JIpgwvhf-enW7Zx7ybm6-64">
          <mxGeometry x="-0.2008" y="-2" relative="1" as="geometry">
            <mxPoint y="-1" as="offset" />
          </mxGeometry>
        </mxCell>
        <mxCell id="JIpgwvhf-enW7Zx7ybm6-66" value="q50&lt;div&gt;identifier&lt;/div&gt;" style="ellipse;whiteSpace=wrap;html=1;aspect=fixed;strokeColor=#00FF00;" vertex="1" parent="1">
          <mxGeometry x="1189.6666870117188" y="674" width="80" height="80" as="geometry" />
        </mxCell>
        <mxCell id="JIpgwvhf-enW7Zx7ybm6-67" style="edgeStyle=orthogonalEdgeStyle;rounded=0;orthogonalLoop=1;jettySize=auto;html=1;exitX=0.5;exitY=1;exitDx=0;exitDy=0;entryX=0.5;entryY=0;entryDx=0;entryDy=0;curved=1;" edge="1" parent="1" source="JIpgwvhf-enW7Zx7ybm6-71" target="JIpgwvhf-enW7Zx7ybm6-74">
          <mxGeometry relative="1" as="geometry" />
        </mxCell>
        <mxCell id="JIpgwvhf-enW7Zx7ybm6-68" value="d" style="edgeLabel;html=1;align=center;verticalAlign=middle;resizable=0;points=[];" vertex="1" connectable="0" parent="JIpgwvhf-enW7Zx7ybm6-67">
          <mxGeometry x="-0.2082" relative="1" as="geometry">
            <mxPoint as="offset" />
          </mxGeometry>
        </mxCell>
        <mxCell id="JIpgwvhf-enW7Zx7ybm6-69" style="edgeStyle=orthogonalEdgeStyle;rounded=0;orthogonalLoop=1;jettySize=auto;html=1;exitX=0;exitY=0.5;exitDx=0;exitDy=0;entryX=1;entryY=0.5;entryDx=0;entryDy=0;curved=1;" edge="1" parent="1" source="JIpgwvhf-enW7Zx7ybm6-71" target="JIpgwvhf-enW7Zx7ybm6-77">
          <mxGeometry relative="1" as="geometry" />
        </mxCell>
        <mxCell id="JIpgwvhf-enW7Zx7ybm6-70" value="[a-z&lt;span style=&quot;color: light-dark(rgb(0, 0, 0), rgb(255, 255, 255));&quot;&gt;]&lt;/span&gt;&lt;div&gt;&lt;span style=&quot;color: light-dark(rgb(0, 0, 0), rgb(255, 255, 255));&quot;&gt;[A-Z&lt;/span&gt;&lt;span style=&quot;color: light-dark(rgb(0, 0, 0), rgb(255, 255, 255));&quot;&gt;]&lt;/span&gt;&lt;/div&gt;&lt;div&gt;&lt;span style=&quot;color: light-dark(rgb(0, 0, 0), rgb(255, 255, 255));&quot;&gt;[0-9]&lt;/span&gt;&lt;/div&gt;&lt;div&gt;{d}&lt;/div&gt;" style="edgeLabel;html=1;align=center;verticalAlign=middle;resizable=0;points=[];" vertex="1" connectable="0" parent="JIpgwvhf-enW7Zx7ybm6-69">
          <mxGeometry x="-0.2439" relative="1" as="geometry">
            <mxPoint as="offset" />
          </mxGeometry>
        </mxCell>
        <mxCell id="JIpgwvhf-enW7Zx7ybm6-71" value="q51&lt;div&gt;identifier&lt;/div&gt;" style="ellipse;whiteSpace=wrap;html=1;aspect=fixed;strokeColor=#00FF00;" vertex="1" parent="1">
          <mxGeometry x="1189.6666870117188" y="790" width="80" height="80" as="geometry" />
        </mxCell>
        <mxCell id="JIpgwvhf-enW7Zx7ybm6-72" style="edgeStyle=orthogonalEdgeStyle;rounded=0;orthogonalLoop=1;jettySize=auto;html=1;exitX=0;exitY=0;exitDx=0;exitDy=0;entryX=1;entryY=1;entryDx=0;entryDy=0;curved=1;" edge="1" parent="1" source="JIpgwvhf-enW7Zx7ybm6-74" target="JIpgwvhf-enW7Zx7ybm6-77">
          <mxGeometry relative="1" as="geometry" />
        </mxCell>
        <mxCell id="JIpgwvhf-enW7Zx7ybm6-73" value="[a-z&lt;span style=&quot;color: light-dark(rgb(0, 0, 0), rgb(255, 255, 255));&quot;&gt;]&lt;/span&gt;&lt;div&gt;&lt;span style=&quot;color: light-dark(rgb(0, 0, 0), rgb(255, 255, 255));&quot;&gt;[A-Z&lt;/span&gt;&lt;span style=&quot;color: light-dark(rgb(0, 0, 0), rgb(255, 255, 255));&quot;&gt;]&lt;/span&gt;&lt;/div&gt;&lt;div&gt;&lt;span style=&quot;color: light-dark(rgb(0, 0, 0), rgb(255, 255, 255));&quot;&gt;[0-9]&lt;/span&gt;&lt;/div&gt;" style="edgeLabel;html=1;align=center;verticalAlign=middle;resizable=0;points=[];" vertex="1" connectable="0" parent="JIpgwvhf-enW7Zx7ybm6-72">
          <mxGeometry x="0.0776" y="-15" relative="1" as="geometry">
            <mxPoint as="offset" />
          </mxGeometry>
        </mxCell>
        <mxCell id="JIpgwvhf-enW7Zx7ybm6-74" value="q52&lt;div&gt;VOID&lt;/div&gt;" style="ellipse;whiteSpace=wrap;html=1;aspect=fixed;strokeColor=#00FF00;" vertex="1" parent="1">
          <mxGeometry x="1189.6666870117188" y="906" width="80" height="80" as="geometry" />
        </mxCell>
        <mxCell id="JIpgwvhf-enW7Zx7ybm6-75" style="edgeStyle=orthogonalEdgeStyle;rounded=0;orthogonalLoop=1;jettySize=auto;html=1;exitX=0;exitY=0.5;exitDx=0;exitDy=0;curved=1;entryX=0;entryY=0.5;entryDx=0;entryDy=0;" edge="1" parent="1" source="JIpgwvhf-enW7Zx7ybm6-77" target="JIpgwvhf-enW7Zx7ybm6-77">
          <mxGeometry relative="1" as="geometry">
            <mxPoint x="995.6666870117188" y="869" as="targetPoint" />
            <Array as="points">
              <mxPoint x="973.6666870117188" y="761" />
              <mxPoint x="973.6666870117188" y="831" />
              <mxPoint x="1061.6666870117188" y="831" />
              <mxPoint x="1061.6666870117188" y="761" />
            </Array>
          </mxGeometry>
        </mxCell>
        <mxCell id="JIpgwvhf-enW7Zx7ybm6-76" value="[a-z&lt;span style=&quot;color: light-dark(rgb(0, 0, 0), rgb(255, 255, 255));&quot;&gt;]&lt;/span&gt;&lt;div&gt;&lt;span style=&quot;color: light-dark(rgb(0, 0, 0), rgb(255, 255, 255));&quot;&gt;[A-Z&lt;/span&gt;&lt;span style=&quot;color: light-dark(rgb(0, 0, 0), rgb(255, 255, 255));&quot;&gt;]&lt;/span&gt;&lt;/div&gt;&lt;div&gt;&lt;span style=&quot;color: light-dark(rgb(0, 0, 0), rgb(255, 255, 255));&quot;&gt;[0-9]&lt;/span&gt;&lt;/div&gt;" style="edgeLabel;html=1;align=center;verticalAlign=middle;resizable=0;points=[];" vertex="1" connectable="0" parent="JIpgwvhf-enW7Zx7ybm6-75">
          <mxGeometry x="0.1479" y="5" relative="1" as="geometry">
            <mxPoint as="offset" />
          </mxGeometry>
        </mxCell>
        <mxCell id="JIpgwvhf-enW7Zx7ybm6-77" value="q43&lt;div&gt;identifier&lt;/div&gt;" style="ellipse;whiteSpace=wrap;html=1;aspect=fixed;strokeColor=#00FF00;" vertex="1" parent="1">
          <mxGeometry x="1064.6666870117188" y="721" width="80" height="80" as="geometry" />
        </mxCell>
        <mxCell id="JIpgwvhf-enW7Zx7ybm6-78" style="edgeStyle=orthogonalEdgeStyle;rounded=0;orthogonalLoop=1;jettySize=auto;html=1;exitX=0;exitY=1;exitDx=0;exitDy=0;entryX=1;entryY=0;entryDx=0;entryDy=0;curved=1;" edge="1" parent="1" source="JIpgwvhf-enW7Zx7ybm6-82" target="JIpgwvhf-enW7Zx7ybm6-87">
          <mxGeometry relative="1" as="geometry" />
        </mxCell>
        <mxCell id="JIpgwvhf-enW7Zx7ybm6-79" value="o" style="edgeLabel;html=1;align=center;verticalAlign=middle;resizable=0;points=[];" vertex="1" connectable="0" parent="JIpgwvhf-enW7Zx7ybm6-78">
          <mxGeometry x="-0.2173" y="5" relative="1" as="geometry">
            <mxPoint as="offset" />
          </mxGeometry>
        </mxCell>
        <mxCell id="JIpgwvhf-enW7Zx7ybm6-80" style="edgeStyle=orthogonalEdgeStyle;rounded=0;orthogonalLoop=1;jettySize=auto;html=1;exitX=0;exitY=0.5;exitDx=0;exitDy=0;entryX=1;entryY=0;entryDx=0;entryDy=0;curved=1;" edge="1" parent="1" source="JIpgwvhf-enW7Zx7ybm6-82" target="JIpgwvhf-enW7Zx7ybm6-93">
          <mxGeometry relative="1" as="geometry">
            <Array as="points">
              <mxPoint x="1022.6666870117188" y="513" />
            </Array>
          </mxGeometry>
        </mxCell>
        <mxCell id="JIpgwvhf-enW7Zx7ybm6-81" value="[a-z&lt;span style=&quot;color: light-dark(rgb(0, 0, 0), rgb(255, 255, 255));&quot;&gt;]&lt;/span&gt;&lt;div&gt;&lt;span style=&quot;color: light-dark(rgb(0, 0, 0), rgb(255, 255, 255));&quot;&gt;[A-Z&lt;/span&gt;&lt;span style=&quot;color: light-dark(rgb(0, 0, 0), rgb(255, 255, 255));&quot;&gt;]&lt;/span&gt;&lt;/div&gt;&lt;div&gt;&lt;span style=&quot;color: light-dark(rgb(0, 0, 0), rgb(255, 255, 255));&quot;&gt;[0-9]&lt;/span&gt;&lt;/div&gt;&lt;div&gt;{o}&lt;/div&gt;" style="edgeLabel;html=1;align=center;verticalAlign=middle;resizable=0;points=[];" vertex="1" connectable="0" parent="JIpgwvhf-enW7Zx7ybm6-80">
          <mxGeometry x="0.074" y="3" relative="1" as="geometry">
            <mxPoint as="offset" />
          </mxGeometry>
        </mxCell>
        <mxCell id="JIpgwvhf-enW7Zx7ybm6-82" value="q53&lt;div&gt;identifier&lt;/div&gt;" style="ellipse;whiteSpace=wrap;html=1;aspect=fixed;strokeColor=#00FF00;" vertex="1" parent="1">
          <mxGeometry x="1170.6666870117188" y="473" width="80" height="80" as="geometry" />
        </mxCell>
        <mxCell id="JIpgwvhf-enW7Zx7ybm6-83" style="edgeStyle=orthogonalEdgeStyle;rounded=0;orthogonalLoop=1;jettySize=auto;html=1;exitX=0;exitY=1;exitDx=0;exitDy=0;entryX=1;entryY=0;entryDx=0;entryDy=0;curved=1;" edge="1" parent="1" source="JIpgwvhf-enW7Zx7ybm6-87" target="JIpgwvhf-enW7Zx7ybm6-90">
          <mxGeometry relative="1" as="geometry" />
        </mxCell>
        <mxCell id="JIpgwvhf-enW7Zx7ybm6-84" value="r" style="edgeLabel;html=1;align=center;verticalAlign=middle;resizable=0;points=[];" vertex="1" connectable="0" parent="JIpgwvhf-enW7Zx7ybm6-83">
          <mxGeometry x="0.2104" y="8" relative="1" as="geometry">
            <mxPoint y="-1" as="offset" />
          </mxGeometry>
        </mxCell>
        <mxCell id="JIpgwvhf-enW7Zx7ybm6-85" style="edgeStyle=orthogonalEdgeStyle;rounded=0;orthogonalLoop=1;jettySize=auto;html=1;exitX=0;exitY=0.5;exitDx=0;exitDy=0;entryX=1;entryY=0.5;entryDx=0;entryDy=0;curved=1;" edge="1" parent="1" source="JIpgwvhf-enW7Zx7ybm6-87" target="JIpgwvhf-enW7Zx7ybm6-93">
          <mxGeometry relative="1" as="geometry" />
        </mxCell>
        <mxCell id="JIpgwvhf-enW7Zx7ybm6-86" value="[a-z&lt;span style=&quot;color: light-dark(rgb(0, 0, 0), rgb(255, 255, 255));&quot;&gt;]&lt;/span&gt;&lt;div&gt;&lt;span style=&quot;color: light-dark(rgb(0, 0, 0), rgb(255, 255, 255));&quot;&gt;[A-Z&lt;/span&gt;&lt;span style=&quot;color: light-dark(rgb(0, 0, 0), rgb(255, 255, 255));&quot;&gt;]&lt;/span&gt;&lt;/div&gt;&lt;div&gt;&lt;span style=&quot;color: light-dark(rgb(0, 0, 0), rgb(255, 255, 255));&quot;&gt;[0-9]&lt;/span&gt;&lt;/div&gt;&lt;div&gt;{r}&lt;/div&gt;" style="edgeLabel;html=1;align=center;verticalAlign=middle;resizable=0;points=[];" vertex="1" connectable="0" parent="JIpgwvhf-enW7Zx7ybm6-85">
          <mxGeometry x="-0.2854" y="-2" relative="1" as="geometry">
            <mxPoint as="offset" />
          </mxGeometry>
        </mxCell>
        <mxCell id="JIpgwvhf-enW7Zx7ybm6-87" value="q54&lt;div&gt;identifier&lt;/div&gt;" style="ellipse;whiteSpace=wrap;html=1;aspect=fixed;strokeColor=#00FF00;" vertex="1" parent="1">
          <mxGeometry x="1064.6666870117188" y="543" width="80" height="80" as="geometry" />
        </mxCell>
        <mxCell id="JIpgwvhf-enW7Zx7ybm6-88" style="edgeStyle=orthogonalEdgeStyle;rounded=0;orthogonalLoop=1;jettySize=auto;html=1;exitX=0;exitY=0;exitDx=0;exitDy=0;entryX=1;entryY=1;entryDx=0;entryDy=0;curved=1;" edge="1" parent="1" source="JIpgwvhf-enW7Zx7ybm6-90" target="JIpgwvhf-enW7Zx7ybm6-93">
          <mxGeometry relative="1" as="geometry" />
        </mxCell>
        <mxCell id="JIpgwvhf-enW7Zx7ybm6-89" value="[a-z&lt;span style=&quot;color: light-dark(rgb(0, 0, 0), rgb(255, 255, 255));&quot;&gt;]&lt;/span&gt;&lt;div&gt;&lt;span style=&quot;color: light-dark(rgb(0, 0, 0), rgb(255, 255, 255));&quot;&gt;[A-Z&lt;/span&gt;&lt;span style=&quot;color: light-dark(rgb(0, 0, 0), rgb(255, 255, 255));&quot;&gt;]&lt;/span&gt;&lt;/div&gt;&lt;div&gt;&lt;span style=&quot;color: light-dark(rgb(0, 0, 0), rgb(255, 255, 255));&quot;&gt;[0-9]&lt;/span&gt;&lt;/div&gt;" style="edgeLabel;html=1;align=center;verticalAlign=middle;resizable=0;points=[];" vertex="1" connectable="0" parent="JIpgwvhf-enW7Zx7ybm6-88">
          <mxGeometry x="0.2609" y="-8" relative="1" as="geometry">
            <mxPoint as="offset" />
          </mxGeometry>
        </mxCell>
        <mxCell id="JIpgwvhf-enW7Zx7ybm6-90" value="q55&lt;div&gt;FOR&lt;/div&gt;" style="ellipse;whiteSpace=wrap;html=1;aspect=fixed;strokeColor=#00FF00;" vertex="1" parent="1">
          <mxGeometry x="967.6666870117188" y="651" width="80" height="80" as="geometry" />
        </mxCell>
        <mxCell id="JIpgwvhf-enW7Zx7ybm6-91" style="edgeStyle=orthogonalEdgeStyle;rounded=0;orthogonalLoop=1;jettySize=auto;html=1;exitX=0;exitY=0.5;exitDx=0;exitDy=0;curved=1;entryX=0;entryY=0.5;entryDx=0;entryDy=0;" edge="1" parent="1" source="JIpgwvhf-enW7Zx7ybm6-93" target="JIpgwvhf-enW7Zx7ybm6-93">
          <mxGeometry relative="1" as="geometry">
            <mxPoint x="807.4444696335565" y="582.952380952381" as="targetPoint" />
            <Array as="points">
              <mxPoint x="868.6666870117188" y="556" />
              <mxPoint x="807.6666870117188" y="556" />
              <mxPoint x="807.6666870117188" y="591" />
              <mxPoint x="868.6666870117188" y="591" />
            </Array>
          </mxGeometry>
        </mxCell>
        <mxCell id="JIpgwvhf-enW7Zx7ybm6-92" value="[a-z&lt;span style=&quot;color: light-dark(rgb(0, 0, 0), rgb(255, 255, 255));&quot;&gt;]&lt;/span&gt;&lt;div&gt;&lt;span style=&quot;color: light-dark(rgb(0, 0, 0), rgb(255, 255, 255));&quot;&gt;[A-Z&lt;/span&gt;&lt;span style=&quot;color: light-dark(rgb(0, 0, 0), rgb(255, 255, 255));&quot;&gt;]&lt;/span&gt;&lt;/div&gt;&lt;div&gt;&lt;span style=&quot;color: light-dark(rgb(0, 0, 0), rgb(255, 255, 255));&quot;&gt;[0-9]&lt;/span&gt;&lt;/div&gt;" style="edgeLabel;html=1;align=center;verticalAlign=middle;resizable=0;points=[];" vertex="1" connectable="0" parent="JIpgwvhf-enW7Zx7ybm6-91">
          <mxGeometry x="0.5661" y="1" relative="1" as="geometry">
            <mxPoint as="offset" />
          </mxGeometry>
        </mxCell>
        <mxCell id="JIpgwvhf-enW7Zx7ybm6-93" value="q43&lt;div&gt;identifier&lt;/div&gt;" style="ellipse;whiteSpace=wrap;html=1;aspect=fixed;strokeColor=#00FF00;" vertex="1" parent="1">
          <mxGeometry x="868.6666870117188" y="543" width="80" height="80" as="geometry" />
        </mxCell>
        <mxCell id="JIpgwvhf-enW7Zx7ybm6-94" style="edgeStyle=orthogonalEdgeStyle;rounded=0;orthogonalLoop=1;jettySize=auto;html=1;exitX=0;exitY=1;exitDx=0;exitDy=0;entryX=1;entryY=0.5;entryDx=0;entryDy=0;curved=1;" edge="1" parent="1" source="JIpgwvhf-enW7Zx7ybm6-98" target="JIpgwvhf-enW7Zx7ybm6-103">
          <mxGeometry relative="1" as="geometry" />
        </mxCell>
        <mxCell id="JIpgwvhf-enW7Zx7ybm6-95" value="l" style="edgeLabel;html=1;align=center;verticalAlign=middle;resizable=0;points=[];" vertex="1" connectable="0" parent="JIpgwvhf-enW7Zx7ybm6-94">
          <mxGeometry x="-0.0978" y="-1" relative="1" as="geometry">
            <mxPoint as="offset" />
          </mxGeometry>
        </mxCell>
        <mxCell id="JIpgwvhf-enW7Zx7ybm6-96" style="edgeStyle=orthogonalEdgeStyle;rounded=0;orthogonalLoop=1;jettySize=auto;html=1;exitX=0;exitY=0.5;exitDx=0;exitDy=0;entryX=1;entryY=1;entryDx=0;entryDy=0;curved=1;" edge="1" parent="1" source="JIpgwvhf-enW7Zx7ybm6-98" target="JIpgwvhf-enW7Zx7ybm6-114">
          <mxGeometry relative="1" as="geometry">
            <mxPoint x="1010.9509582591828" y="346.2842712474642" as="targetPoint" />
            <Array as="points">
              <mxPoint x="1178.6666870117188" y="374" />
              <mxPoint x="1010.6666870117188" y="374" />
            </Array>
          </mxGeometry>
        </mxCell>
        <mxCell id="JIpgwvhf-enW7Zx7ybm6-97" value="[a-z&lt;span style=&quot;color: light-dark(rgb(0, 0, 0), rgb(255, 255, 255));&quot;&gt;]&lt;/span&gt;&lt;div&gt;&lt;span style=&quot;color: light-dark(rgb(0, 0, 0), rgb(255, 255, 255));&quot;&gt;[A-Z&lt;/span&gt;&lt;span style=&quot;color: light-dark(rgb(0, 0, 0), rgb(255, 255, 255));&quot;&gt;]&lt;/span&gt;&lt;/div&gt;&lt;div&gt;&lt;span style=&quot;color: light-dark(rgb(0, 0, 0), rgb(255, 255, 255));&quot;&gt;[0-9]&lt;/span&gt;&lt;/div&gt;&lt;div&gt;{l}&lt;/div&gt;" style="edgeLabel;html=1;align=center;verticalAlign=middle;resizable=0;points=[];" vertex="1" connectable="0" parent="JIpgwvhf-enW7Zx7ybm6-96">
          <mxGeometry x="0.0976" y="1" relative="1" as="geometry">
            <mxPoint x="1" as="offset" />
          </mxGeometry>
        </mxCell>
        <mxCell id="JIpgwvhf-enW7Zx7ybm6-98" value="q56&lt;div&gt;identifier&lt;/div&gt;" style="ellipse;whiteSpace=wrap;html=1;aspect=fixed;strokeColor=#00FF00;" vertex="1" parent="1">
          <mxGeometry x="1178.6666870117188" y="384" width="80" height="80" as="geometry" />
        </mxCell>
        <mxCell id="JIpgwvhf-enW7Zx7ybm6-99" style="edgeStyle=orthogonalEdgeStyle;rounded=0;orthogonalLoop=1;jettySize=auto;html=1;exitX=0;exitY=0.5;exitDx=0;exitDy=0;entryX=1;entryY=1;entryDx=0;entryDy=0;curved=1;" edge="1" parent="1" source="JIpgwvhf-enW7Zx7ybm6-103" target="JIpgwvhf-enW7Zx7ybm6-108">
          <mxGeometry relative="1" as="geometry" />
        </mxCell>
        <mxCell id="JIpgwvhf-enW7Zx7ybm6-100" value="s" style="edgeLabel;html=1;align=center;verticalAlign=middle;resizable=0;points=[];" vertex="1" connectable="0" parent="JIpgwvhf-enW7Zx7ybm6-99">
          <mxGeometry x="-0.1072" y="2" relative="1" as="geometry">
            <mxPoint as="offset" />
          </mxGeometry>
        </mxCell>
        <mxCell id="JIpgwvhf-enW7Zx7ybm6-101" style="edgeStyle=orthogonalEdgeStyle;rounded=0;orthogonalLoop=1;jettySize=auto;html=1;exitX=0;exitY=0;exitDx=0;exitDy=0;entryX=0.5;entryY=1;entryDx=0;entryDy=0;curved=1;" edge="1" parent="1" source="JIpgwvhf-enW7Zx7ybm6-103" target="JIpgwvhf-enW7Zx7ybm6-114">
          <mxGeometry relative="1" as="geometry">
            <mxPoint x="982.6666870117188" y="358.0000000000001" as="targetPoint" />
            <Array as="points">
              <mxPoint x="1074.6666870117188" y="400" />
              <mxPoint x="983.6666870117188" y="400" />
              <mxPoint x="983.6666870117188" y="360" />
            </Array>
          </mxGeometry>
        </mxCell>
        <mxCell id="JIpgwvhf-enW7Zx7ybm6-102" value="[a-z&lt;span style=&quot;color: light-dark(rgb(0, 0, 0), rgb(255, 255, 255));&quot;&gt;]&lt;/span&gt;&lt;div&gt;&lt;span style=&quot;color: light-dark(rgb(0, 0, 0), rgb(255, 255, 255));&quot;&gt;[A-Z&lt;/span&gt;&lt;span style=&quot;color: light-dark(rgb(0, 0, 0), rgb(255, 255, 255));&quot;&gt;]&lt;/span&gt;&lt;/div&gt;&lt;div&gt;&lt;span style=&quot;color: light-dark(rgb(0, 0, 0), rgb(255, 255, 255));&quot;&gt;[0-9]&lt;/span&gt;&lt;/div&gt;&lt;div&gt;{s}&lt;/div&gt;" style="edgeLabel;html=1;align=center;verticalAlign=middle;resizable=0;points=[];" vertex="1" connectable="0" parent="JIpgwvhf-enW7Zx7ybm6-101">
          <mxGeometry x="-0.3189" relative="1" as="geometry">
            <mxPoint as="offset" />
          </mxGeometry>
        </mxCell>
        <mxCell id="JIpgwvhf-enW7Zx7ybm6-103" value="q57&lt;div&gt;identifier&lt;/div&gt;" style="ellipse;whiteSpace=wrap;html=1;aspect=fixed;strokeColor=#00FF00;" vertex="1" parent="1">
          <mxGeometry x="1062.6666870117188" y="413" width="80" height="80" as="geometry" />
        </mxCell>
        <mxCell id="JIpgwvhf-enW7Zx7ybm6-104" style="edgeStyle=orthogonalEdgeStyle;rounded=0;orthogonalLoop=1;jettySize=auto;html=1;exitX=0;exitY=0.5;exitDx=0;exitDy=0;entryX=1;entryY=0.5;entryDx=0;entryDy=0;curved=1;" edge="1" parent="1" source="JIpgwvhf-enW7Zx7ybm6-108" target="JIpgwvhf-enW7Zx7ybm6-111">
          <mxGeometry relative="1" as="geometry" />
        </mxCell>
        <mxCell id="JIpgwvhf-enW7Zx7ybm6-105" value="e" style="edgeLabel;html=1;align=center;verticalAlign=middle;resizable=0;points=[];" vertex="1" connectable="0" parent="JIpgwvhf-enW7Zx7ybm6-104">
          <mxGeometry x="-0.0326" y="-1" relative="1" as="geometry">
            <mxPoint as="offset" />
          </mxGeometry>
        </mxCell>
        <mxCell id="JIpgwvhf-enW7Zx7ybm6-106" style="edgeStyle=orthogonalEdgeStyle;rounded=0;orthogonalLoop=1;jettySize=auto;html=1;exitX=0;exitY=0;exitDx=0;exitDy=0;entryX=0;entryY=1;entryDx=0;entryDy=0;curved=1;" edge="1" parent="1" source="JIpgwvhf-enW7Zx7ybm6-108" target="JIpgwvhf-enW7Zx7ybm6-114">
          <mxGeometry relative="1" as="geometry" />
        </mxCell>
        <mxCell id="JIpgwvhf-enW7Zx7ybm6-107" value="[a-z&lt;span style=&quot;color: light-dark(rgb(0, 0, 0), rgb(255, 255, 255));&quot;&gt;]&lt;/span&gt;&lt;div&gt;&lt;span style=&quot;color: light-dark(rgb(0, 0, 0), rgb(255, 255, 255));&quot;&gt;[A-Z&lt;/span&gt;&lt;span style=&quot;color: light-dark(rgb(0, 0, 0), rgb(255, 255, 255));&quot;&gt;]&lt;/span&gt;&lt;/div&gt;&lt;div&gt;&lt;span style=&quot;color: light-dark(rgb(0, 0, 0), rgb(255, 255, 255));&quot;&gt;[0-9]&lt;/span&gt;&lt;/div&gt;&lt;div&gt;{e}&lt;/div&gt;" style="edgeLabel;html=1;align=center;verticalAlign=middle;resizable=0;points=[];" vertex="1" connectable="0" parent="JIpgwvhf-enW7Zx7ybm6-106">
          <mxGeometry x="-0.032" y="2" relative="1" as="geometry">
            <mxPoint as="offset" />
          </mxGeometry>
        </mxCell>
        <mxCell id="JIpgwvhf-enW7Zx7ybm6-108" value="q58&lt;div&gt;identifier&lt;/div&gt;" style="ellipse;whiteSpace=wrap;html=1;aspect=fixed;strokeColor=#00FF00;" vertex="1" parent="1">
          <mxGeometry x="954.6666870117188" y="405" width="80" height="80" as="geometry" />
        </mxCell>
        <mxCell id="JIpgwvhf-enW7Zx7ybm6-109" style="edgeStyle=orthogonalEdgeStyle;rounded=0;orthogonalLoop=1;jettySize=auto;html=1;exitX=0.5;exitY=0;exitDx=0;exitDy=0;entryX=0;entryY=0.5;entryDx=0;entryDy=0;curved=1;" edge="1" parent="1" source="JIpgwvhf-enW7Zx7ybm6-111" target="JIpgwvhf-enW7Zx7ybm6-114">
          <mxGeometry relative="1" as="geometry" />
        </mxCell>
        <mxCell id="JIpgwvhf-enW7Zx7ybm6-110" value="[a-z&lt;span style=&quot;color: light-dark(rgb(0, 0, 0), rgb(255, 255, 255));&quot;&gt;]&lt;/span&gt;&lt;div&gt;&lt;span style=&quot;color: light-dark(rgb(0, 0, 0), rgb(255, 255, 255));&quot;&gt;[A-Z&lt;/span&gt;&lt;span style=&quot;color: light-dark(rgb(0, 0, 0), rgb(255, 255, 255));&quot;&gt;]&lt;/span&gt;&lt;/div&gt;&lt;div&gt;&lt;span style=&quot;color: light-dark(rgb(0, 0, 0), rgb(255, 255, 255));&quot;&gt;[0-9]&lt;/span&gt;&lt;/div&gt;" style="edgeLabel;html=1;align=center;verticalAlign=middle;resizable=0;points=[];" vertex="1" connectable="0" parent="JIpgwvhf-enW7Zx7ybm6-109">
          <mxGeometry x="-0.1663" y="-14" relative="1" as="geometry">
            <mxPoint as="offset" />
          </mxGeometry>
        </mxCell>
        <mxCell id="JIpgwvhf-enW7Zx7ybm6-111" value="q59&lt;div&gt;ELSE&lt;/div&gt;" style="ellipse;whiteSpace=wrap;html=1;aspect=fixed;strokeColor=#00FF00;" vertex="1" parent="1">
          <mxGeometry x="819.6666870117188" y="456" width="80" height="80" as="geometry" />
        </mxCell>
        <mxCell id="JIpgwvhf-enW7Zx7ybm6-112" style="edgeStyle=orthogonalEdgeStyle;rounded=0;orthogonalLoop=1;jettySize=auto;html=1;exitX=0.5;exitY=0;exitDx=0;exitDy=0;curved=1;entryX=0.5;entryY=0;entryDx=0;entryDy=0;" edge="1" parent="1" source="JIpgwvhf-enW7Zx7ybm6-114" target="JIpgwvhf-enW7Zx7ybm6-114">
          <mxGeometry relative="1" as="geometry">
            <mxPoint x="1050.6666870117188" y="259" as="targetPoint" />
            <Array as="points">
              <mxPoint x="946.6666870117188" y="273" />
              <mxPoint x="946.6666870117188" y="219" />
              <mxPoint x="1026.6666870117188" y="219" />
              <mxPoint x="1026.6666870117188" y="259" />
              <mxPoint x="981.6666870117188" y="259" />
            </Array>
          </mxGeometry>
        </mxCell>
        <mxCell id="JIpgwvhf-enW7Zx7ybm6-113" value="[a-z&lt;span style=&quot;color: light-dark(rgb(0, 0, 0), rgb(255, 255, 255));&quot;&gt;]&lt;/span&gt;&lt;div&gt;&lt;span style=&quot;color: light-dark(rgb(0, 0, 0), rgb(255, 255, 255));&quot;&gt;[A-Z&lt;/span&gt;&lt;span style=&quot;color: light-dark(rgb(0, 0, 0), rgb(255, 255, 255));&quot;&gt;]&lt;/span&gt;&lt;/div&gt;&lt;div&gt;&lt;span style=&quot;color: light-dark(rgb(0, 0, 0), rgb(255, 255, 255));&quot;&gt;[0-9]&lt;/span&gt;&lt;/div&gt;" style="edgeLabel;html=1;align=center;verticalAlign=middle;resizable=0;points=[];" vertex="1" connectable="0" parent="JIpgwvhf-enW7Zx7ybm6-112">
          <mxGeometry x="-0.0581" y="-2" relative="1" as="geometry">
            <mxPoint as="offset" />
          </mxGeometry>
        </mxCell>
        <mxCell id="JIpgwvhf-enW7Zx7ybm6-114" value="q43&lt;div&gt;identifier&lt;/div&gt;" style="ellipse;whiteSpace=wrap;html=1;aspect=fixed;strokeColor=#00FF00;" vertex="1" parent="1">
          <mxGeometry x="941.6666870117188" y="273" width="80" height="80" as="geometry" />
        </mxCell>
        <mxCell id="JIpgwvhf-enW7Zx7ybm6-120" style="edgeStyle=orthogonalEdgeStyle;curved=1;rounded=0;orthogonalLoop=1;jettySize=auto;html=1;exitX=0;exitY=0.5;exitDx=0;exitDy=0;entryX=1;entryY=0.5;entryDx=0;entryDy=0;fontSize=12;startSize=8;endSize=8;" edge="1" parent="1" source="JIpgwvhf-enW7Zx7ybm6-115" target="JIpgwvhf-enW7Zx7ybm6-119">
          <mxGeometry relative="1" as="geometry" />
        </mxCell>
        <mxCell id="JIpgwvhf-enW7Zx7ybm6-121" value="h" style="edgeLabel;html=1;align=center;verticalAlign=middle;resizable=0;points=[];fontSize=12;" vertex="1" connectable="0" parent="JIpgwvhf-enW7Zx7ybm6-120">
          <mxGeometry x="-0.1041" y="-2" relative="1" as="geometry">
            <mxPoint y="1" as="offset" />
          </mxGeometry>
        </mxCell>
        <mxCell id="JIpgwvhf-enW7Zx7ybm6-133" style="edgeStyle=orthogonalEdgeStyle;curved=1;rounded=0;orthogonalLoop=1;jettySize=auto;html=1;exitX=0;exitY=0;exitDx=0;exitDy=0;entryX=1;entryY=1;entryDx=0;entryDy=0;fontSize=12;startSize=8;endSize=8;" edge="1" parent="1" source="JIpgwvhf-enW7Zx7ybm6-115" target="JIpgwvhf-enW7Zx7ybm6-131">
          <mxGeometry relative="1" as="geometry" />
        </mxCell>
        <mxCell id="JIpgwvhf-enW7Zx7ybm6-141" value="&lt;span style=&quot;font-size: 11px;&quot;&gt;[a-z&lt;/span&gt;&lt;span style=&quot;color: light-dark(rgb(0, 0, 0), rgb(255, 255, 255)); font-size: 11px;&quot;&gt;]&lt;/span&gt;&lt;div style=&quot;font-size: 11px;&quot;&gt;&lt;span style=&quot;color: light-dark(rgb(0, 0, 0), rgb(255, 255, 255));&quot;&gt;[A-Z&lt;/span&gt;&lt;span style=&quot;color: light-dark(rgb(0, 0, 0), rgb(255, 255, 255));&quot;&gt;]&lt;/span&gt;&lt;/div&gt;&lt;div style=&quot;font-size: 11px;&quot;&gt;&lt;span style=&quot;color: light-dark(rgb(0, 0, 0), rgb(255, 255, 255));&quot;&gt;[0-9]&lt;/span&gt;&lt;/div&gt;&lt;div style=&quot;font-size: 11px;&quot;&gt;{h}&lt;/div&gt;" style="edgeLabel;html=1;align=center;verticalAlign=middle;resizable=0;points=[];fontSize=12;" vertex="1" connectable="0" parent="JIpgwvhf-enW7Zx7ybm6-133">
          <mxGeometry x="-0.1689" y="-3" relative="1" as="geometry">
            <mxPoint as="offset" />
          </mxGeometry>
        </mxCell>
        <mxCell id="JIpgwvhf-enW7Zx7ybm6-115" value="q60&lt;div&gt;identifier&lt;/div&gt;" style="ellipse;whiteSpace=wrap;html=1;aspect=fixed;strokeColor=#00FF00;" vertex="1" parent="1">
          <mxGeometry x="1228" y="302" width="80" height="80" as="geometry" />
        </mxCell>
        <mxCell id="JIpgwvhf-enW7Zx7ybm6-123" style="edgeStyle=orthogonalEdgeStyle;curved=1;rounded=0;orthogonalLoop=1;jettySize=auto;html=1;exitX=0;exitY=0;exitDx=0;exitDy=0;entryX=0.5;entryY=1;entryDx=0;entryDy=0;fontSize=12;startSize=8;endSize=8;" edge="1" parent="1" source="JIpgwvhf-enW7Zx7ybm6-119" target="JIpgwvhf-enW7Zx7ybm6-122">
          <mxGeometry relative="1" as="geometry" />
        </mxCell>
        <mxCell id="JIpgwvhf-enW7Zx7ybm6-124" value="i" style="edgeLabel;html=1;align=center;verticalAlign=middle;resizable=0;points=[];fontSize=12;" vertex="1" connectable="0" parent="JIpgwvhf-enW7Zx7ybm6-123">
          <mxGeometry x="-0.2952" y="-9" relative="1" as="geometry">
            <mxPoint as="offset" />
          </mxGeometry>
        </mxCell>
        <mxCell id="JIpgwvhf-enW7Zx7ybm6-134" style="edgeStyle=orthogonalEdgeStyle;curved=1;rounded=0;orthogonalLoop=1;jettySize=auto;html=1;exitX=0.5;exitY=0;exitDx=0;exitDy=0;entryX=0.5;entryY=1;entryDx=0;entryDy=0;fontSize=12;startSize=8;endSize=8;" edge="1" parent="1" source="JIpgwvhf-enW7Zx7ybm6-119" target="JIpgwvhf-enW7Zx7ybm6-131">
          <mxGeometry relative="1" as="geometry" />
        </mxCell>
        <mxCell id="JIpgwvhf-enW7Zx7ybm6-142" value="&lt;span style=&quot;font-size: 11px;&quot;&gt;[a-z&lt;/span&gt;&lt;span style=&quot;color: light-dark(rgb(0, 0, 0), rgb(255, 255, 255)); font-size: 11px;&quot;&gt;]&lt;/span&gt;&lt;div style=&quot;font-size: 11px;&quot;&gt;&lt;span style=&quot;color: light-dark(rgb(0, 0, 0), rgb(255, 255, 255));&quot;&gt;[A-Z&lt;/span&gt;&lt;span style=&quot;color: light-dark(rgb(0, 0, 0), rgb(255, 255, 255));&quot;&gt;]&lt;/span&gt;&lt;/div&gt;&lt;div style=&quot;font-size: 11px;&quot;&gt;&lt;span style=&quot;color: light-dark(rgb(0, 0, 0), rgb(255, 255, 255));&quot;&gt;[0-9]&lt;/span&gt;&lt;/div&gt;&lt;div style=&quot;font-size: 11px;&quot;&gt;{i}&lt;/div&gt;" style="edgeLabel;html=1;align=center;verticalAlign=middle;resizable=0;points=[];fontSize=12;" vertex="1" connectable="0" parent="JIpgwvhf-enW7Zx7ybm6-134">
          <mxGeometry x="-0.1607" y="-6" relative="1" as="geometry">
            <mxPoint as="offset" />
          </mxGeometry>
        </mxCell>
        <mxCell id="JIpgwvhf-enW7Zx7ybm6-119" value="q61&lt;div&gt;identifier&lt;/div&gt;" style="ellipse;whiteSpace=wrap;html=1;aspect=fixed;strokeColor=#00FF00;" vertex="1" parent="1">
          <mxGeometry x="1112" y="279" width="80" height="80" as="geometry" />
        </mxCell>
        <mxCell id="JIpgwvhf-enW7Zx7ybm6-126" style="edgeStyle=orthogonalEdgeStyle;curved=1;rounded=0;orthogonalLoop=1;jettySize=auto;html=1;exitX=0.5;exitY=0;exitDx=0;exitDy=0;entryX=0.5;entryY=1;entryDx=0;entryDy=0;fontSize=12;startSize=8;endSize=8;" edge="1" parent="1" source="JIpgwvhf-enW7Zx7ybm6-122" target="JIpgwvhf-enW7Zx7ybm6-125">
          <mxGeometry relative="1" as="geometry" />
        </mxCell>
        <mxCell id="JIpgwvhf-enW7Zx7ybm6-127" value="l" style="edgeLabel;html=1;align=center;verticalAlign=middle;resizable=0;points=[];fontSize=12;" vertex="1" connectable="0" parent="JIpgwvhf-enW7Zx7ybm6-126">
          <mxGeometry x="-0.1946" relative="1" as="geometry">
            <mxPoint as="offset" />
          </mxGeometry>
        </mxCell>
        <mxCell id="JIpgwvhf-enW7Zx7ybm6-135" style="edgeStyle=orthogonalEdgeStyle;curved=1;rounded=0;orthogonalLoop=1;jettySize=auto;html=1;exitX=1;exitY=0;exitDx=0;exitDy=0;entryX=0;entryY=1;entryDx=0;entryDy=0;fontSize=12;startSize=8;endSize=8;" edge="1" parent="1" source="JIpgwvhf-enW7Zx7ybm6-122" target="JIpgwvhf-enW7Zx7ybm6-131">
          <mxGeometry relative="1" as="geometry" />
        </mxCell>
        <mxCell id="JIpgwvhf-enW7Zx7ybm6-143" value="&lt;span style=&quot;font-size: 11px;&quot;&gt;[a-z&lt;/span&gt;&lt;span style=&quot;color: light-dark(rgb(0, 0, 0), rgb(255, 255, 255)); font-size: 11px;&quot;&gt;]&lt;/span&gt;&lt;div style=&quot;font-size: 11px;&quot;&gt;&lt;span style=&quot;color: light-dark(rgb(0, 0, 0), rgb(255, 255, 255));&quot;&gt;[A-Z&lt;/span&gt;&lt;span style=&quot;color: light-dark(rgb(0, 0, 0), rgb(255, 255, 255));&quot;&gt;]&lt;/span&gt;&lt;/div&gt;&lt;div style=&quot;font-size: 11px;&quot;&gt;&lt;span style=&quot;color: light-dark(rgb(0, 0, 0), rgb(255, 255, 255));&quot;&gt;[0-9]&lt;/span&gt;&lt;/div&gt;&lt;div style=&quot;font-size: 11px;&quot;&gt;{l}&lt;/div&gt;" style="edgeLabel;html=1;align=center;verticalAlign=middle;resizable=0;points=[];fontSize=12;" vertex="1" connectable="0" parent="JIpgwvhf-enW7Zx7ybm6-135">
          <mxGeometry x="-0.0047" y="3" relative="1" as="geometry">
            <mxPoint y="1" as="offset" />
          </mxGeometry>
        </mxCell>
        <mxCell id="JIpgwvhf-enW7Zx7ybm6-122" value="q62&lt;div&gt;identifier&lt;/div&gt;" style="ellipse;whiteSpace=wrap;html=1;aspect=fixed;strokeColor=#00FF00;" vertex="1" parent="1">
          <mxGeometry x="1026" y="166" width="80" height="80" as="geometry" />
        </mxCell>
        <mxCell id="JIpgwvhf-enW7Zx7ybm6-129" style="edgeStyle=orthogonalEdgeStyle;curved=1;rounded=0;orthogonalLoop=1;jettySize=auto;html=1;exitX=0.5;exitY=0;exitDx=0;exitDy=0;entryX=0.5;entryY=1;entryDx=0;entryDy=0;fontSize=12;startSize=8;endSize=8;" edge="1" parent="1" source="JIpgwvhf-enW7Zx7ybm6-125" target="JIpgwvhf-enW7Zx7ybm6-128">
          <mxGeometry relative="1" as="geometry" />
        </mxCell>
        <mxCell id="JIpgwvhf-enW7Zx7ybm6-130" value="e" style="edgeLabel;html=1;align=center;verticalAlign=middle;resizable=0;points=[];fontSize=12;" vertex="1" connectable="0" parent="JIpgwvhf-enW7Zx7ybm6-129">
          <mxGeometry x="-0.0828" relative="1" as="geometry">
            <mxPoint as="offset" />
          </mxGeometry>
        </mxCell>
        <mxCell id="JIpgwvhf-enW7Zx7ybm6-136" style="edgeStyle=orthogonalEdgeStyle;curved=1;rounded=0;orthogonalLoop=1;jettySize=auto;html=1;exitX=1;exitY=0.5;exitDx=0;exitDy=0;entryX=0;entryY=0.5;entryDx=0;entryDy=0;fontSize=12;startSize=8;endSize=8;" edge="1" parent="1" source="JIpgwvhf-enW7Zx7ybm6-125" target="JIpgwvhf-enW7Zx7ybm6-131">
          <mxGeometry relative="1" as="geometry" />
        </mxCell>
        <mxCell id="JIpgwvhf-enW7Zx7ybm6-144" value="&lt;span style=&quot;font-size: 11px;&quot;&gt;[a-z&lt;/span&gt;&lt;span style=&quot;color: light-dark(rgb(0, 0, 0), rgb(255, 255, 255)); font-size: 11px;&quot;&gt;]&lt;/span&gt;&lt;div style=&quot;font-size: 11px;&quot;&gt;&lt;span style=&quot;color: light-dark(rgb(0, 0, 0), rgb(255, 255, 255));&quot;&gt;[A-Z&lt;/span&gt;&lt;span style=&quot;color: light-dark(rgb(0, 0, 0), rgb(255, 255, 255));&quot;&gt;]&lt;/span&gt;&lt;/div&gt;&lt;div style=&quot;font-size: 11px;&quot;&gt;&lt;span style=&quot;color: light-dark(rgb(0, 0, 0), rgb(255, 255, 255));&quot;&gt;[0-9]&lt;/span&gt;&lt;/div&gt;&lt;div style=&quot;font-size: 11px;&quot;&gt;{e}&lt;/div&gt;" style="edgeLabel;html=1;align=center;verticalAlign=middle;resizable=0;points=[];fontSize=12;" vertex="1" connectable="0" parent="JIpgwvhf-enW7Zx7ybm6-136">
          <mxGeometry x="-0.1194" y="-2" relative="1" as="geometry">
            <mxPoint as="offset" />
          </mxGeometry>
        </mxCell>
        <mxCell id="JIpgwvhf-enW7Zx7ybm6-125" value="q63&lt;div&gt;identifier&lt;/div&gt;" style="ellipse;whiteSpace=wrap;html=1;aspect=fixed;strokeColor=#00FF00;" vertex="1" parent="1">
          <mxGeometry x="1026" y="40" width="80" height="80" as="geometry" />
        </mxCell>
        <mxCell id="JIpgwvhf-enW7Zx7ybm6-137" style="edgeStyle=orthogonalEdgeStyle;curved=1;rounded=0;orthogonalLoop=1;jettySize=auto;html=1;exitX=1;exitY=0.5;exitDx=0;exitDy=0;entryX=0.5;entryY=0;entryDx=0;entryDy=0;fontSize=12;startSize=8;endSize=8;" edge="1" parent="1" source="JIpgwvhf-enW7Zx7ybm6-128" target="JIpgwvhf-enW7Zx7ybm6-131">
          <mxGeometry relative="1" as="geometry" />
        </mxCell>
        <mxCell id="JIpgwvhf-enW7Zx7ybm6-145" value="&lt;span style=&quot;font-size: 11px;&quot;&gt;[a-z&lt;/span&gt;&lt;span style=&quot;color: light-dark(rgb(0, 0, 0), rgb(255, 255, 255)); font-size: 11px;&quot;&gt;]&lt;/span&gt;&lt;div style=&quot;font-size: 11px;&quot;&gt;&lt;span style=&quot;color: light-dark(rgb(0, 0, 0), rgb(255, 255, 255));&quot;&gt;[A-Z&lt;/span&gt;&lt;span style=&quot;color: light-dark(rgb(0, 0, 0), rgb(255, 255, 255));&quot;&gt;]&lt;/span&gt;&lt;/div&gt;&lt;div style=&quot;font-size: 11px;&quot;&gt;&lt;span style=&quot;color: light-dark(rgb(0, 0, 0), rgb(255, 255, 255));&quot;&gt;[0-9]&lt;/span&gt;&lt;/div&gt;" style="edgeLabel;html=1;align=center;verticalAlign=middle;resizable=0;points=[];fontSize=12;" vertex="1" connectable="0" parent="JIpgwvhf-enW7Zx7ybm6-137">
          <mxGeometry x="0.2283" y="-16" relative="1" as="geometry">
            <mxPoint as="offset" />
          </mxGeometry>
        </mxCell>
        <mxCell id="JIpgwvhf-enW7Zx7ybm6-128" value="q64&lt;div&gt;WHILE&lt;/div&gt;" style="ellipse;whiteSpace=wrap;html=1;aspect=fixed;strokeColor=#00FF00;" vertex="1" parent="1">
          <mxGeometry x="1026" y="-86" width="80" height="80" as="geometry" />
        </mxCell>
        <mxCell id="JIpgwvhf-enW7Zx7ybm6-139" style="edgeStyle=orthogonalEdgeStyle;curved=1;rounded=0;orthogonalLoop=1;jettySize=auto;html=1;exitX=1;exitY=0;exitDx=0;exitDy=0;fontSize=12;startSize=8;endSize=8;entryX=1;entryY=0.5;entryDx=0;entryDy=0;" edge="1" parent="1" source="JIpgwvhf-enW7Zx7ybm6-131" target="JIpgwvhf-enW7Zx7ybm6-131">
          <mxGeometry relative="1" as="geometry">
            <mxPoint x="1332" y="176" as="targetPoint" />
            <Array as="points">
              <mxPoint x="1241" y="68" />
              <mxPoint x="1286" y="68" />
              <mxPoint x="1286" y="62" />
              <mxPoint x="1350" y="62" />
              <mxPoint x="1350" y="128" />
              <mxPoint x="1317" y="128" />
              <mxPoint x="1317" y="133" />
            </Array>
          </mxGeometry>
        </mxCell>
        <mxCell id="JIpgwvhf-enW7Zx7ybm6-140" value="&lt;span style=&quot;font-size: 11px;&quot;&gt;[a-z&lt;/span&gt;&lt;span style=&quot;color: light-dark(rgb(0, 0, 0), rgb(255, 255, 255)); font-size: 11px;&quot;&gt;]&lt;/span&gt;&lt;div style=&quot;font-size: 11px;&quot;&gt;&lt;span style=&quot;color: light-dark(rgb(0, 0, 0), rgb(255, 255, 255));&quot;&gt;[A-Z&lt;/span&gt;&lt;span style=&quot;color: light-dark(rgb(0, 0, 0), rgb(255, 255, 255));&quot;&gt;]&lt;/span&gt;&lt;/div&gt;&lt;div style=&quot;font-size: 11px;&quot;&gt;&lt;span style=&quot;color: light-dark(rgb(0, 0, 0), rgb(255, 255, 255));&quot;&gt;[0-9]&lt;/span&gt;&lt;/div&gt;" style="edgeLabel;html=1;align=center;verticalAlign=middle;resizable=0;points=[];fontSize=12;" vertex="1" connectable="0" parent="JIpgwvhf-enW7Zx7ybm6-139">
          <mxGeometry x="0.1543" y="-3" relative="1" as="geometry">
            <mxPoint y="1" as="offset" />
          </mxGeometry>
        </mxCell>
        <mxCell id="JIpgwvhf-enW7Zx7ybm6-131" value="q43&lt;div&gt;identifier&lt;/div&gt;" style="ellipse;whiteSpace=wrap;html=1;aspect=fixed;strokeColor=#00FF00;" vertex="1" parent="1">
          <mxGeometry x="1173" y="93" width="80" height="80" as="geometry" />
        </mxCell>
        <mxCell id="JIpgwvhf-enW7Zx7ybm6-151" style="edgeStyle=orthogonalEdgeStyle;curved=1;rounded=0;orthogonalLoop=1;jettySize=auto;html=1;exitX=1;exitY=0.5;exitDx=0;exitDy=0;entryX=0;entryY=0.5;entryDx=0;entryDy=0;fontSize=12;startSize=8;endSize=8;" edge="1" parent="1" source="JIpgwvhf-enW7Zx7ybm6-147" target="JIpgwvhf-enW7Zx7ybm6-150">
          <mxGeometry relative="1" as="geometry" />
        </mxCell>
        <mxCell id="JIpgwvhf-enW7Zx7ybm6-152" value="e" style="edgeLabel;html=1;align=center;verticalAlign=middle;resizable=0;points=[];fontSize=12;" vertex="1" connectable="0" parent="JIpgwvhf-enW7Zx7ybm6-151">
          <mxGeometry x="-0.0356" y="3" relative="1" as="geometry">
            <mxPoint as="offset" />
          </mxGeometry>
        </mxCell>
        <mxCell id="JIpgwvhf-enW7Zx7ybm6-173" style="edgeStyle=orthogonalEdgeStyle;curved=1;rounded=0;orthogonalLoop=1;jettySize=auto;html=1;exitX=0.5;exitY=0;exitDx=0;exitDy=0;entryX=0;entryY=1;entryDx=0;entryDy=0;fontSize=12;startSize=8;endSize=8;" edge="1" parent="1" source="JIpgwvhf-enW7Zx7ybm6-147" target="JIpgwvhf-enW7Zx7ybm6-167">
          <mxGeometry relative="1" as="geometry" />
        </mxCell>
        <mxCell id="JIpgwvhf-enW7Zx7ybm6-181" value="&lt;span style=&quot;font-size: 11px;&quot;&gt;[a-z&lt;/span&gt;&lt;span style=&quot;color: light-dark(rgb(0, 0, 0), rgb(255, 255, 255)); font-size: 11px;&quot;&gt;]&lt;/span&gt;&lt;div style=&quot;font-size: 11px;&quot;&gt;&lt;span style=&quot;color: light-dark(rgb(0, 0, 0), rgb(255, 255, 255));&quot;&gt;[A-Z&lt;/span&gt;&lt;span style=&quot;color: light-dark(rgb(0, 0, 0), rgb(255, 255, 255));&quot;&gt;]&lt;/span&gt;&lt;/div&gt;&lt;div style=&quot;font-size: 11px;&quot;&gt;&lt;span style=&quot;color: light-dark(rgb(0, 0, 0), rgb(255, 255, 255));&quot;&gt;[0-9]&lt;/span&gt;&lt;/div&gt;&lt;div style=&quot;font-size: 11px;&quot;&gt;{e}&lt;/div&gt;" style="edgeLabel;html=1;align=center;verticalAlign=middle;resizable=0;points=[];fontSize=12;" vertex="1" connectable="0" parent="JIpgwvhf-enW7Zx7ybm6-173">
          <mxGeometry x="-0.1856" y="-2" relative="1" as="geometry">
            <mxPoint as="offset" />
          </mxGeometry>
        </mxCell>
        <mxCell id="JIpgwvhf-enW7Zx7ybm6-147" value="q65&lt;div&gt;identifier&lt;/div&gt;" style="ellipse;whiteSpace=wrap;html=1;aspect=fixed;strokeColor=#00FF00;" vertex="1" parent="1">
          <mxGeometry x="1457" y="359" width="80" height="80" as="geometry" />
        </mxCell>
        <mxCell id="JIpgwvhf-enW7Zx7ybm6-154" style="edgeStyle=orthogonalEdgeStyle;curved=1;rounded=0;orthogonalLoop=1;jettySize=auto;html=1;exitX=1;exitY=0.5;exitDx=0;exitDy=0;entryX=0;entryY=0.5;entryDx=0;entryDy=0;fontSize=12;startSize=8;endSize=8;" edge="1" parent="1" source="JIpgwvhf-enW7Zx7ybm6-150" target="JIpgwvhf-enW7Zx7ybm6-153">
          <mxGeometry relative="1" as="geometry" />
        </mxCell>
        <mxCell id="JIpgwvhf-enW7Zx7ybm6-155" value="t" style="edgeLabel;html=1;align=center;verticalAlign=middle;resizable=0;points=[];fontSize=12;" vertex="1" connectable="0" parent="JIpgwvhf-enW7Zx7ybm6-154">
          <mxGeometry x="-0.0893" y="-2" relative="1" as="geometry">
            <mxPoint as="offset" />
          </mxGeometry>
        </mxCell>
        <mxCell id="JIpgwvhf-enW7Zx7ybm6-172" style="edgeStyle=orthogonalEdgeStyle;curved=1;rounded=0;orthogonalLoop=1;jettySize=auto;html=1;exitX=0.5;exitY=0;exitDx=0;exitDy=0;entryX=0.5;entryY=1;entryDx=0;entryDy=0;fontSize=12;startSize=8;endSize=8;" edge="1" parent="1" source="JIpgwvhf-enW7Zx7ybm6-150" target="JIpgwvhf-enW7Zx7ybm6-167">
          <mxGeometry relative="1" as="geometry" />
        </mxCell>
        <mxCell id="JIpgwvhf-enW7Zx7ybm6-180" value="&lt;span style=&quot;font-size: 11px;&quot;&gt;[a-z&lt;/span&gt;&lt;span style=&quot;color: light-dark(rgb(0, 0, 0), rgb(255, 255, 255)); font-size: 11px;&quot;&gt;]&lt;/span&gt;&lt;div style=&quot;font-size: 11px;&quot;&gt;&lt;span style=&quot;color: light-dark(rgb(0, 0, 0), rgb(255, 255, 255));&quot;&gt;[A-Z&lt;/span&gt;&lt;span style=&quot;color: light-dark(rgb(0, 0, 0), rgb(255, 255, 255));&quot;&gt;]&lt;/span&gt;&lt;/div&gt;&lt;div style=&quot;font-size: 11px;&quot;&gt;&lt;span style=&quot;color: light-dark(rgb(0, 0, 0), rgb(255, 255, 255));&quot;&gt;[0-9]&lt;/span&gt;&lt;/div&gt;&lt;div style=&quot;font-size: 11px;&quot;&gt;{t}&lt;/div&gt;" style="edgeLabel;html=1;align=center;verticalAlign=middle;resizable=0;points=[];fontSize=12;" vertex="1" connectable="0" parent="JIpgwvhf-enW7Zx7ybm6-172">
          <mxGeometry x="-0.5286" y="-10" relative="1" as="geometry">
            <mxPoint as="offset" />
          </mxGeometry>
        </mxCell>
        <mxCell id="JIpgwvhf-enW7Zx7ybm6-150" value="q66&lt;div&gt;identifier&lt;/div&gt;" style="ellipse;whiteSpace=wrap;html=1;aspect=fixed;strokeColor=#00FF00;" vertex="1" parent="1">
          <mxGeometry x="1588" y="359" width="80" height="80" as="geometry" />
        </mxCell>
        <mxCell id="JIpgwvhf-enW7Zx7ybm6-157" style="edgeStyle=orthogonalEdgeStyle;curved=1;rounded=0;orthogonalLoop=1;jettySize=auto;html=1;exitX=1;exitY=0.5;exitDx=0;exitDy=0;entryX=0;entryY=0.5;entryDx=0;entryDy=0;fontSize=12;startSize=8;endSize=8;" edge="1" parent="1" source="JIpgwvhf-enW7Zx7ybm6-153" target="JIpgwvhf-enW7Zx7ybm6-156">
          <mxGeometry relative="1" as="geometry" />
        </mxCell>
        <mxCell id="JIpgwvhf-enW7Zx7ybm6-158" value="u" style="edgeLabel;html=1;align=center;verticalAlign=middle;resizable=0;points=[];fontSize=12;" vertex="1" connectable="0" parent="JIpgwvhf-enW7Zx7ybm6-157">
          <mxGeometry x="-0.1721" y="-1" relative="1" as="geometry">
            <mxPoint as="offset" />
          </mxGeometry>
        </mxCell>
        <mxCell id="JIpgwvhf-enW7Zx7ybm6-171" style="edgeStyle=orthogonalEdgeStyle;curved=1;rounded=0;orthogonalLoop=1;jettySize=auto;html=1;exitX=0;exitY=0;exitDx=0;exitDy=0;entryX=0.5;entryY=1;entryDx=0;entryDy=0;fontSize=12;startSize=8;endSize=8;" edge="1" parent="1" source="JIpgwvhf-enW7Zx7ybm6-153" target="JIpgwvhf-enW7Zx7ybm6-167">
          <mxGeometry relative="1" as="geometry" />
        </mxCell>
        <mxCell id="JIpgwvhf-enW7Zx7ybm6-179" value="&lt;span style=&quot;font-size: 11px;&quot;&gt;[a-z&lt;/span&gt;&lt;span style=&quot;color: light-dark(rgb(0, 0, 0), rgb(255, 255, 255)); font-size: 11px;&quot;&gt;]&lt;/span&gt;&lt;div style=&quot;font-size: 11px;&quot;&gt;&lt;span style=&quot;color: light-dark(rgb(0, 0, 0), rgb(255, 255, 255));&quot;&gt;[A-Z&lt;/span&gt;&lt;span style=&quot;color: light-dark(rgb(0, 0, 0), rgb(255, 255, 255));&quot;&gt;]&lt;/span&gt;&lt;/div&gt;&lt;div style=&quot;font-size: 11px;&quot;&gt;&lt;span style=&quot;color: light-dark(rgb(0, 0, 0), rgb(255, 255, 255));&quot;&gt;[0-9]&lt;/span&gt;&lt;/div&gt;&lt;div style=&quot;font-size: 11px;&quot;&gt;{u}&lt;/div&gt;" style="edgeLabel;html=1;align=center;verticalAlign=middle;resizable=0;points=[];fontSize=12;" vertex="1" connectable="0" parent="JIpgwvhf-enW7Zx7ybm6-171">
          <mxGeometry x="-0.4564" y="7" relative="1" as="geometry">
            <mxPoint as="offset" />
          </mxGeometry>
        </mxCell>
        <mxCell id="JIpgwvhf-enW7Zx7ybm6-153" value="q67&lt;div&gt;identifier&lt;/div&gt;" style="ellipse;whiteSpace=wrap;html=1;aspect=fixed;strokeColor=#00FF00;" vertex="1" parent="1">
          <mxGeometry x="1719" y="359" width="80" height="80" as="geometry" />
        </mxCell>
        <mxCell id="JIpgwvhf-enW7Zx7ybm6-160" style="edgeStyle=orthogonalEdgeStyle;curved=1;rounded=0;orthogonalLoop=1;jettySize=auto;html=1;exitX=0.5;exitY=0;exitDx=0;exitDy=0;entryX=0.5;entryY=1;entryDx=0;entryDy=0;fontSize=12;startSize=8;endSize=8;" edge="1" parent="1" source="JIpgwvhf-enW7Zx7ybm6-156" target="JIpgwvhf-enW7Zx7ybm6-159">
          <mxGeometry relative="1" as="geometry" />
        </mxCell>
        <mxCell id="JIpgwvhf-enW7Zx7ybm6-161" value="r" style="edgeLabel;html=1;align=center;verticalAlign=middle;resizable=0;points=[];fontSize=12;" vertex="1" connectable="0" parent="JIpgwvhf-enW7Zx7ybm6-160">
          <mxGeometry x="-0.1266" y="2" relative="1" as="geometry">
            <mxPoint as="offset" />
          </mxGeometry>
        </mxCell>
        <mxCell id="JIpgwvhf-enW7Zx7ybm6-170" style="edgeStyle=orthogonalEdgeStyle;curved=1;rounded=0;orthogonalLoop=1;jettySize=auto;html=1;exitX=0;exitY=0;exitDx=0;exitDy=0;entryX=1;entryY=1;entryDx=0;entryDy=0;fontSize=12;startSize=8;endSize=8;" edge="1" parent="1" source="JIpgwvhf-enW7Zx7ybm6-156" target="JIpgwvhf-enW7Zx7ybm6-167">
          <mxGeometry relative="1" as="geometry">
            <Array as="points">
              <mxPoint x="1862" y="329" />
              <mxPoint x="1746" y="329" />
              <mxPoint x="1746" y="224" />
            </Array>
          </mxGeometry>
        </mxCell>
        <mxCell id="JIpgwvhf-enW7Zx7ybm6-178" value="&lt;span style=&quot;font-size: 11px;&quot;&gt;[a-z&lt;/span&gt;&lt;span style=&quot;color: light-dark(rgb(0, 0, 0), rgb(255, 255, 255)); font-size: 11px;&quot;&gt;]&lt;/span&gt;&lt;div style=&quot;font-size: 11px;&quot;&gt;&lt;span style=&quot;color: light-dark(rgb(0, 0, 0), rgb(255, 255, 255));&quot;&gt;[A-Z&lt;/span&gt;&lt;span style=&quot;color: light-dark(rgb(0, 0, 0), rgb(255, 255, 255));&quot;&gt;]&lt;/span&gt;&lt;/div&gt;&lt;div style=&quot;font-size: 11px;&quot;&gt;&lt;span style=&quot;color: light-dark(rgb(0, 0, 0), rgb(255, 255, 255));&quot;&gt;[0-9]&lt;/span&gt;&lt;/div&gt;&lt;div style=&quot;font-size: 11px;&quot;&gt;{r}&lt;/div&gt;" style="edgeLabel;html=1;align=center;verticalAlign=middle;resizable=0;points=[];fontSize=12;" vertex="1" connectable="0" parent="JIpgwvhf-enW7Zx7ybm6-170">
          <mxGeometry x="-0.3475" relative="1" as="geometry">
            <mxPoint as="offset" />
          </mxGeometry>
        </mxCell>
        <mxCell id="JIpgwvhf-enW7Zx7ybm6-156" value="q68&lt;div&gt;identifier&lt;/div&gt;" style="ellipse;whiteSpace=wrap;html=1;aspect=fixed;strokeColor=#00FF00;" vertex="1" parent="1">
          <mxGeometry x="1850" y="359" width="80" height="80" as="geometry" />
        </mxCell>
        <mxCell id="JIpgwvhf-enW7Zx7ybm6-163" style="edgeStyle=orthogonalEdgeStyle;curved=1;rounded=0;orthogonalLoop=1;jettySize=auto;html=1;exitX=0.5;exitY=0;exitDx=0;exitDy=0;entryX=0.5;entryY=1;entryDx=0;entryDy=0;fontSize=12;startSize=8;endSize=8;" edge="1" parent="1" source="JIpgwvhf-enW7Zx7ybm6-159" target="JIpgwvhf-enW7Zx7ybm6-162">
          <mxGeometry relative="1" as="geometry" />
        </mxCell>
        <mxCell id="JIpgwvhf-enW7Zx7ybm6-166" value="n" style="edgeLabel;html=1;align=center;verticalAlign=middle;resizable=0;points=[];fontSize=12;" vertex="1" connectable="0" parent="JIpgwvhf-enW7Zx7ybm6-163">
          <mxGeometry relative="1" as="geometry">
            <mxPoint as="offset" />
          </mxGeometry>
        </mxCell>
        <mxCell id="JIpgwvhf-enW7Zx7ybm6-169" style="edgeStyle=orthogonalEdgeStyle;curved=1;rounded=0;orthogonalLoop=1;jettySize=auto;html=1;exitX=0;exitY=0.5;exitDx=0;exitDy=0;entryX=1;entryY=0.5;entryDx=0;entryDy=0;fontSize=12;startSize=8;endSize=8;" edge="1" parent="1" source="JIpgwvhf-enW7Zx7ybm6-159" target="JIpgwvhf-enW7Zx7ybm6-167">
          <mxGeometry relative="1" as="geometry" />
        </mxCell>
        <mxCell id="JIpgwvhf-enW7Zx7ybm6-177" value="&lt;span style=&quot;font-size: 11px;&quot;&gt;[a-z&lt;/span&gt;&lt;span style=&quot;color: light-dark(rgb(0, 0, 0), rgb(255, 255, 255)); font-size: 11px;&quot;&gt;]&lt;/span&gt;&lt;div style=&quot;font-size: 11px;&quot;&gt;&lt;span style=&quot;color: light-dark(rgb(0, 0, 0), rgb(255, 255, 255));&quot;&gt;[A-Z&lt;/span&gt;&lt;span style=&quot;color: light-dark(rgb(0, 0, 0), rgb(255, 255, 255));&quot;&gt;]&lt;/span&gt;&lt;/div&gt;&lt;div style=&quot;font-size: 11px;&quot;&gt;&lt;span style=&quot;color: light-dark(rgb(0, 0, 0), rgb(255, 255, 255));&quot;&gt;[0-9]&lt;/span&gt;&lt;/div&gt;&lt;div style=&quot;font-size: 11px;&quot;&gt;{n}&lt;/div&gt;" style="edgeLabel;html=1;align=center;verticalAlign=middle;resizable=0;points=[];fontSize=12;" vertex="1" connectable="0" parent="JIpgwvhf-enW7Zx7ybm6-169">
          <mxGeometry x="-0.5703" y="-12" relative="1" as="geometry">
            <mxPoint as="offset" />
          </mxGeometry>
        </mxCell>
        <mxCell id="JIpgwvhf-enW7Zx7ybm6-159" value="q68&lt;div&gt;identifier&lt;/div&gt;" style="ellipse;whiteSpace=wrap;html=1;aspect=fixed;strokeColor=#00FF00;" vertex="1" parent="1">
          <mxGeometry x="1850" y="236" width="80" height="80" as="geometry" />
        </mxCell>
        <mxCell id="JIpgwvhf-enW7Zx7ybm6-168" style="edgeStyle=orthogonalEdgeStyle;curved=1;rounded=0;orthogonalLoop=1;jettySize=auto;html=1;exitX=0;exitY=0.5;exitDx=0;exitDy=0;entryX=1;entryY=0;entryDx=0;entryDy=0;fontSize=12;startSize=8;endSize=8;" edge="1" parent="1" source="JIpgwvhf-enW7Zx7ybm6-162" target="JIpgwvhf-enW7Zx7ybm6-167">
          <mxGeometry relative="1" as="geometry" />
        </mxCell>
        <mxCell id="JIpgwvhf-enW7Zx7ybm6-176" value="&lt;span style=&quot;font-size: 11px;&quot;&gt;[a-z&lt;/span&gt;&lt;span style=&quot;color: light-dark(rgb(0, 0, 0), rgb(255, 255, 255)); font-size: 11px;&quot;&gt;]&lt;/span&gt;&lt;div style=&quot;font-size: 11px;&quot;&gt;&lt;span style=&quot;color: light-dark(rgb(0, 0, 0), rgb(255, 255, 255));&quot;&gt;[A-Z&lt;/span&gt;&lt;span style=&quot;color: light-dark(rgb(0, 0, 0), rgb(255, 255, 255));&quot;&gt;]&lt;/span&gt;&lt;/div&gt;&lt;div style=&quot;font-size: 11px;&quot;&gt;&lt;span style=&quot;color: light-dark(rgb(0, 0, 0), rgb(255, 255, 255));&quot;&gt;[0-9]&lt;/span&gt;&lt;/div&gt;" style="edgeLabel;html=1;align=center;verticalAlign=middle;resizable=0;points=[];fontSize=12;" vertex="1" connectable="0" parent="JIpgwvhf-enW7Zx7ybm6-168">
          <mxGeometry x="-0.3353" y="8" relative="1" as="geometry">
            <mxPoint as="offset" />
          </mxGeometry>
        </mxCell>
        <mxCell id="JIpgwvhf-enW7Zx7ybm6-162" value="q69&lt;div&gt;RETURN&lt;/div&gt;" style="ellipse;whiteSpace=wrap;html=1;aspect=fixed;strokeColor=#00FF00;" vertex="1" parent="1">
          <mxGeometry x="1850" y="100" width="80" height="80" as="geometry" />
        </mxCell>
        <mxCell id="JIpgwvhf-enW7Zx7ybm6-174" style="edgeStyle=orthogonalEdgeStyle;curved=1;rounded=0;orthogonalLoop=1;jettySize=auto;html=1;exitX=0;exitY=0;exitDx=0;exitDy=0;fontSize=12;startSize=8;endSize=8;entryX=0;entryY=0;entryDx=0;entryDy=0;" edge="1" parent="1" source="JIpgwvhf-enW7Zx7ybm6-167" target="JIpgwvhf-enW7Zx7ybm6-167">
          <mxGeometry relative="1" as="geometry">
            <mxPoint x="1653" y="117" as="targetPoint" />
            <Array as="points">
              <mxPoint x="1655" y="177" />
              <mxPoint x="1595" y="177" />
              <mxPoint x="1595" y="117" />
              <mxPoint x="1655" y="117" />
            </Array>
          </mxGeometry>
        </mxCell>
        <mxCell id="JIpgwvhf-enW7Zx7ybm6-175" value="&lt;span style=&quot;font-size: 11px;&quot;&gt;[a-z&lt;/span&gt;&lt;span style=&quot;color: light-dark(rgb(0, 0, 0), rgb(255, 255, 255)); font-size: 11px;&quot;&gt;]&lt;/span&gt;&lt;div style=&quot;font-size: 11px;&quot;&gt;&lt;span style=&quot;color: light-dark(rgb(0, 0, 0), rgb(255, 255, 255));&quot;&gt;[A-Z&lt;/span&gt;&lt;span style=&quot;color: light-dark(rgb(0, 0, 0), rgb(255, 255, 255));&quot;&gt;]&lt;/span&gt;&lt;/div&gt;&lt;div style=&quot;font-size: 11px;&quot;&gt;&lt;span style=&quot;color: light-dark(rgb(0, 0, 0), rgb(255, 255, 255));&quot;&gt;[0-9]&lt;/span&gt;&lt;/div&gt;" style="edgeLabel;html=1;align=center;verticalAlign=middle;resizable=0;points=[];fontSize=12;" vertex="1" connectable="0" parent="JIpgwvhf-enW7Zx7ybm6-174">
          <mxGeometry x="0.0042" y="-7" relative="1" as="geometry">
            <mxPoint as="offset" />
          </mxGeometry>
        </mxCell>
        <mxCell id="JIpgwvhf-enW7Zx7ybm6-167" value="q43&lt;div&gt;identifier&lt;/div&gt;" style="ellipse;whiteSpace=wrap;html=1;aspect=fixed;strokeColor=#00FF00;" vertex="1" parent="1">
          <mxGeometry x="1643.67" y="156" width="80" height="80" as="geometry" />
        </mxCell>
        <mxCell id="JIpgwvhf-enW7Zx7ybm6-185" style="edgeStyle=orthogonalEdgeStyle;curved=1;rounded=0;orthogonalLoop=1;jettySize=auto;html=1;exitX=0.5;exitY=0;exitDx=0;exitDy=0;fontSize=12;startSize=8;endSize=8;entryX=0.5;entryY=0;entryDx=0;entryDy=0;" edge="1" parent="1" source="JIpgwvhf-enW7Zx7ybm6-182" target="JIpgwvhf-enW7Zx7ybm6-182">
          <mxGeometry relative="1" as="geometry">
            <mxPoint x="1424" y="212" as="targetPoint" />
            <Array as="points">
              <mxPoint x="1333" y="261" />
              <mxPoint x="1333" y="194" />
              <mxPoint x="1395" y="194" />
              <mxPoint x="1395" y="261" />
            </Array>
          </mxGeometry>
        </mxCell>
        <mxCell id="JIpgwvhf-enW7Zx7ybm6-187" value="&lt;span style=&quot;font-size: 11px;&quot;&gt;[a-z&lt;/span&gt;&lt;span style=&quot;color: light-dark(rgb(0, 0, 0), rgb(255, 255, 255)); font-size: 11px;&quot;&gt;]&lt;/span&gt;&lt;div style=&quot;font-size: 11px;&quot;&gt;&lt;span style=&quot;color: light-dark(rgb(0, 0, 0), rgb(255, 255, 255));&quot;&gt;[A-Z&lt;/span&gt;&lt;span style=&quot;color: light-dark(rgb(0, 0, 0), rgb(255, 255, 255));&quot;&gt;]&lt;/span&gt;&lt;/div&gt;&lt;div style=&quot;font-size: 11px;&quot;&gt;&lt;span style=&quot;color: light-dark(rgb(0, 0, 0), rgb(255, 255, 255));&quot;&gt;[0-9]&lt;/span&gt;&lt;/div&gt;" style="edgeLabel;html=1;align=center;verticalAlign=middle;resizable=0;points=[];fontSize=12;" vertex="1" connectable="0" parent="JIpgwvhf-enW7Zx7ybm6-185">
          <mxGeometry x="0.0312" relative="1" as="geometry">
            <mxPoint as="offset" />
          </mxGeometry>
        </mxCell>
        <mxCell id="JIpgwvhf-enW7Zx7ybm6-182" value="q43&lt;div&gt;identifier&lt;/div&gt;" style="ellipse;whiteSpace=wrap;html=1;aspect=fixed;strokeColor=#00FF00;" vertex="1" parent="1">
          <mxGeometry x="1327" y="261" width="80" height="80" as="geometry" />
        </mxCell>
      </root>
    </mxGraphModel>
  </diagram>
</mxfile>
